<?xml version="1.0" encoding="UTF-8"?>
<svg id="Layer_1" data-name="Layer 1" xmlns="http://www.w3.org/2000/svg" viewBox="0 0 113.47 52.82">
  <path d="M12.19,10.3h-7.55l-2,4.61H.19L6.86.21h3.1l6.71,14.7h-2.39l-2.09-4.61ZM11.56,8.8l-3.14-7-3.12,7h6.26Z"/>
  <path d="M20.19,0v14.91h-2.2V0h2.2Z"/>
  <path d="M25.37,0v14.91h-2.18V0h2.18Z"/>
  <path d="M38.92,9.69h-9.48c-.19,2.1,1.35,3.95,3.44,4.14.14.01.27.02.41.02,1.69.09,3.21-1.03,3.62-2.67l1.94.13c-.34,2.29-2.62,4-5.64,4-3.45,0-6-2.21-6-5.72s2.54-5.73,6-5.73,5.78,2.1,5.78,5.22c0,.21-.03.41-.07.61ZM36.79,8.58c.02-1.89-1.5-3.45-3.4-3.46-.07,0-.14,0-.2,0-1.97-.06-3.62,1.49-3.68,3.46,0,.01,0,.03,0,.04l7.28-.04Z"/>
  <path d="M41.02,4.3h2.17l-.1,2.73h.18c.21-1.68,1.67-2.92,3.36-2.85.38,0,.75.05,1.12.12l-.06,1.95c-.45-.1-.9-.16-1.36-.16-2,0-3.14,1.49-3.14,4.11v4.71h-2.2l.03-10.61Z"/>
  <path d="M61.19,15.74c0,2.35-2.68,3.75-6.82,3.75-3.81,0-6.09-1.26-6.09-3.21.04-1.12.82-2.07,1.91-2.33-.74-.28-1.24-.97-1.28-1.76,0-1.07.88-1.74,2.26-1.78v-.11c-1.11-.47-1.85-1.54-1.89-2.75,0-2.16,2.2-3.67,5.48-3.67,1.16-.03,2.31.21,3.36.69.22-1.42,1.5-2.42,2.93-2.29l.08,1.52c-1.23,0-2,.42-2.21,1.29.78.56,1.25,1.46,1.27,2.42,0,2.14-2.1,3.63-5.28,3.63-1.4,0-2.34-.35-3.16-.35s-1.14.33-1.14.84.71,1,1.92,1h3.83c3.01-.04,4.83,1.17,4.83,3.11ZM59.01,16.15c0-1.09-1-1.76-2.68-1.76h-3.83c-.36,0-.71-.03-1.06-.09-.59.38-.96,1.02-1,1.72,0,1.45,1.61,2.38,4.21,2.38s4.36-.9,4.36-2.25ZM51.46,7.51c0,1.47,1.39,2.52,3.35,2.52s3.18-1,3.18-2.48-1.32-2.52-3.3-2.52-3.23.99-3.23,2.48Z"/>
  <path d="M87.19,9v5.91h-2.2v-5.66c0-2.26-1.16-3.63-3.07-3.63s-3.14,1.41-3.14,3.76v5.53h-2.2V4.3h2.18v2.62h.16c.45-1.75,2.08-2.93,3.88-2.83,2.67,0,4.39,1.87,4.39,4.91Z"/>
  <path d="M67.44,3.92c1.9-.1,3.66,1.02,4.36,2.79h.1v-2.41h2.2v10.61h-2.21v-2.44h-.09c-.69,1.77-2.43,2.9-4.33,2.8-3.04.11-5.59-2.26-5.7-5.29,0-.13,0-.26,0-.4-.1-3.02,2.27-5.56,5.29-5.66.13,0,.25,0,.38,0ZM67.95,13.92c2.21,0,4.01-1.78,4.01-3.99,0-.1,0-.21-.01-.31.15-2.2-1.51-4.12-3.71-4.27-.07,0-.14,0-.21,0-2.24.02-4.03,1.85-4.01,4.09,0,.08,0,.15,0,.23-.14,2.2,1.53,4.11,3.73,4.25.06,0,.13,0,.19,0Z"/>
  <path d="M12.19,31.45h-7.55l-2,4.6H.19l6.67-14.68h3.1l6.71,14.69h-2.39l-2.09-4.61ZM11.53,29.98l-3.14-7-3.12,7h6.26Z"/>
  <path d="M28.61,30.8h-9.48c0,2.56,1.64,4.16,3.84,4.16,1.69.1,3.21-1.02,3.62-2.67l2,.13c-.34,2.29-2.63,4-5.65,4-3.44,0-6-2.21-6-5.72-.08-3.09,2.36-5.66,5.45-5.74.18,0,.36,0,.55.01,3.32,0,5.79,2.1,5.79,5.22-.02.21-.06.41-.12.61ZM26.47,29.69c.02-1.89-1.5-3.45-3.39-3.47-.08,0-.15,0-.23,0-1.97-.05-3.61,1.51-3.66,3.48,0,.03,0,.06,0,.09l7.28-.11Z"/>
  <path d="M30.07,32.71l2-.11c.3,1.6,1.62,2.63,3.64,2.63,1.62,0,2.74-.65,2.74-1.74s-.76-1.55-2.18-1.76l-2.18-.28c-2.42-.31-3.48-1.49-3.48-3.06,0-2,1.89-3.32,4.62-3.32,2.93,0,4.87,1.49,5.09,3.63l-2,.09c-.19-1.58-1.62-2.72-3.2-2.54-1.52,0-2.52.69-2.52,1.76,0,.88.64,1.43,1.8,1.59l2.2.3c2.37.29,4,1.34,4,3.21,0,2.08-2.11,3.34-5,3.34-3.07,0-5.17-1.47-5.53-3.74Z"/>
  <path d="M61.19,30.15v5.9h-2.2v-5.65c0-2.27-1.14-3.63-3.05-3.63s-3.14,1.41-3.14,3.76v5.52h-2.2v-14.91h2.2v6.94h.12c.45-1.74,2.07-2.93,3.87-2.84,2.75,0,4.4,1.87,4.4,4.91Z"/>
  <path d="M74.57,30.8h-9.48c-.19,2.1,1.35,3.95,3.44,4.14.14.01.27.02.41.02,1.69.09,3.21-1.03,3.62-2.67l1.94.13c-.34,2.29-2.62,4-5.65,4-3.44,0-6-2.21-6-5.72-.08-3.09,2.36-5.66,5.45-5.74.18,0,.36,0,.55.01,3.32,0,5.79,2.1,5.79,5.22,0,.21-.03.41-.07.61ZM72.44,29.69c.01-1.9-1.51-3.45-3.41-3.47-.07,0-.14,0-.22,0-1.97-.06-3.62,1.49-3.68,3.46,0,.04,0,.07,0,.11l7.31-.11Z"/>
  <path d="M84.54,22.38c.02-.74.63-1.33,1.37-1.31.05,0,.09,0,.14.01.9,0,1.53.5,1.53,1.3s-.61,1.28-1.53,1.28-1.51-.51-1.51-1.28ZM87.19,25.45v10.6h-2.24v-10.6h2.24Z"/>
  <path d="M89.4,30.8c0-3.48,2.66-5.75,6.23-5.75,3.26,0,5.58,1.89,5.8,4.45l-2.1.08c-.25-1.84-1.86-3.19-3.72-3.11-2.21,0-4,1.78-4.01,3.99,0,.09,0,.19,0,.28-.13,2.21,1.56,4.1,3.76,4.22.08,0,.16,0,.24,0,1.87.13,3.53-1.2,3.82-3.06l2.06.06c-.22,2.54-2.52,4.52-5.92,4.52s-6.17-2.18-6.17-5.69Z"/>
  <path d="M102.89,32.71l2-.11c.3,1.6,1.62,2.63,3.65,2.63,1.62,0,2.74-.65,2.74-1.74s-.76-1.55-2.19-1.76l-2.18-.28c-2.42-.31-3.48-1.49-3.48-3.06,0-2,1.9-3.32,4.62-3.32,2.93,0,4.87,1.49,5.09,3.63l-1.95.1c-.19-1.58-1.62-2.72-3.21-2.54-1.52,0-2.52.69-2.52,1.76,0,.88.64,1.43,1.8,1.59l2.21.3c2.36.29,4,1.34,4,3.21,0,2.08-2.1,3.34-5,3.34-3.12-.02-5.22-1.48-5.58-3.75Z"/>
  <path d="M44.65,26.9h3.46v-1.45h-3.46v-2.84h-2.18v9.49c0,2.79,1.44,4.11,3.64,4.11.67,0,1.35-.08,2-.24v-1.62c-.44.12-.9.18-1.36.19-1.38,0-2.16-1-2.16-2.69l.06-4.95Z"/>
  <path d="M78.72,26.9h3.47v-1.45h-3.47v-2.84h-2.18v9.49c0,2.79,1.44,4.11,3.64,4.11.68,0,1.35-.08,2.01-.24v-1.62c-.44.12-.9.18-1.36.19-1.39,0-2.16-1-2.16-2.69l.05-4.95Z"/>
  <path d="M4.19,47.54v2c0,.45.04.9.12,1.34h-.82c-.04-.25-.07-.51-.07-.76-.37.59-1.04.93-1.73.88-.84.09-1.59-.52-1.68-1.36,0-.06,0-.12,0-.18,0-.89.47-1.41,1.89-1.65.45-.08,1.06-.15,1.45-.18v-.2c0-.87-.47-1.23-1.13-1.23-.55-.08-1.05.3-1.13.85,0,.05-.01.1,0,.15H.19c.02-.99.84-1.77,1.83-1.75.06,0,.12,0,.17.01.98-.13,1.88.56,2.01,1.54.02.18.02.36-.01.54ZM3.36,48.33c-.39,0-.93.1-1.31.17-.86.13-1.16.39-1.16.91,0,.5.42.9.93.89.02,0,.05,0,.07,0,.38,0,.74-.14,1-.41.32-.33.47-.79.41-1.24l.06-.32Z"/>
  <path d="M9.83,47.71v3.2h-.87v-3.11c0-1.09-.43-1.49-1.15-1.49s-1.3.56-1.3,1.61v3h-.86v-5.27h.83v.69c.33-.52.91-.83,1.52-.81,1.19,0,1.83.73,1.83,2.18Z"/>
  <path d="M14.59,48.7l-.77,2.19h-1l2.66-7.35h1.24l2.67,7.35h-1l-.77-2.19h-3.03ZM17.19,47.21c-.35-1-.68-2-1-3-.34,1-.66,2-1,3l-.24.67h2.44l-.2-.67Z"/>
  <path d="M21.11,46.37c.31-.55.89-.87,1.52-.85,1.27,0,2.09,1.07,2.09,2.74s-.82,2.76-2.1,2.76c-.63.01-1.22-.33-1.52-.89v.76h-.91v-7.34h.87v2.82h.05ZM21.05,48.26c0,1.24.53,2,1.36,2s1.4-.79,1.4-2-.55-2-1.4-2-1.36.76-1.36,2Z"/>
  <path d="M26.78,46.37c.31-.55.89-.87,1.52-.85,1.27,0,2.09,1.07,2.09,2.74s-.82,2.76-2.1,2.76c-.63.02-1.22-.33-1.52-.89v.76h-.88v-7.34h.87v2.82h.02ZM26.72,48.26c0,1.24.53,2,1.36,2s1.4-.79,1.4-2-.55-2-1.4-2-1.37.77-1.37,2h.01Z"/>
  <path d="M32.87,50.89l-2.41-7.34h.95l1.07,3.25c.34,1,.66,2.09,1,3.14.32-1,.64-2.1,1-3.14l1.06-3.27h1l-2.41,7.34-1.26.02Z"/>
  <path d="M37.31,44.57v-1h.88v1h-.88ZM37.31,50.89v-5.24h.88v5.24h-.88Z"/>
  <path d="M43.01,49.33h.89c-.2,1.04-1.14,1.77-2.2,1.71-1.48,0-2.36-1.13-2.36-2.84,0-1.55.87-2.69,2.33-2.69,1.08-.03,2.02.75,2.18,1.82.07.37.11.75.1,1.13h-3.76c0,1.29.67,1.88,1.48,1.88.64.06,1.22-.38,1.34-1.01ZM40.19,47.8h2.9c-.09-1-.66-1.55-1.42-1.55-.82,0-1.49.68-1.48,1.5,0,.02,0,.03,0,.05Z"/>
  <path d="M51.51,47.51h-.91c0-.69-.55-1.25-1.24-1.26h0c-.89,0-1.42.77-1.42,2s.54,2,1.42,2c.71-.03,1.26-.62,1.24-1.33h.91c-.02,1.16-.97,2.09-2.13,2.08-1.45,0-2.36-1.07-2.36-2.77s.91-2.76,2.36-2.76c1.14-.03,2.1.87,2.13,2.01,0,.01,0,.02,0,.03Z"/>
  <path d="M57.09,48.27c0,1.71-.92,2.77-2.37,2.77s-2.37-1.06-2.37-2.77.9-2.76,2.37-2.76,2.37,1.05,2.37,2.76ZM53.24,48.27c0,1.24.56,2,1.47,2s1.47-.77,1.47-2-.56-2-1.47-2-1.46.77-1.46,2h-.01Z"/>
  <path d="M65.26,47.65v3.23h-.86v-3.16c0-1.05-.39-1.44-1-1.44s-1.21.64-1.21,1.64v3h-.86v-3.33c0-.83-.38-1.31-1-1.31s-1.18.65-1.18,1.7v2.91h-.87v-5.24h.84v.65c.31-.48.83-.76,1.4-.76.66-.03,1.27.38,1.49,1,.28-.62.9-1.02,1.58-1,1.05,0,1.67.7,1.67,2.11Z"/>
  <path d="M71.25,48.26c0,1.67-.81,2.76-2.08,2.76-.63.02-1.22-.32-1.53-.87v2.65h-.87v-7.15h.86v.75c.29-.58.91-.93,1.56-.89,1.24,0,2.06,1.08,2.06,2.75ZM67.58,48.26c0,1.24.53,2,1.36,2s1.41-.79,1.41-2-.55-2-1.41-2-1.36.77-1.36,2Z"/>
  <path d="M76.19,47.54v2c-.01.45.03.9.12,1.34h-.79c-.05-.25-.07-.5-.07-.76-.37.59-1.04.92-1.73.88-.85.09-1.6-.53-1.69-1.37,0-.06,0-.11,0-.17,0-.89.48-1.41,1.9-1.65.44-.08,1-.15,1.45-.18v-.2c0-.87-.48-1.23-1.13-1.23-.55-.08-1.06.29-1.14.84,0,.05-.01.11-.01.16h-.9c.03-1,.87-1.78,1.87-1.75.04,0,.09,0,.13,0,.98-.13,1.88.56,2.01,1.54.02.18.02.36-.01.54ZM75.35,48.33c-.38,0-.92.1-1.31.17-.85.13-1.15.39-1.15.91,0,.5.42.9.93.89.02,0,.05,0,.07,0,.38,0,.74-.14,1-.41.31-.34.45-.79.4-1.24l.06-.32Z"/>
  <path d="M81.83,47.71v3.2h-.86v-3.11c0-1.09-.43-1.49-1.15-1.49s-1.3.56-1.3,1.61v3h-.87v-5.27h.84v.69c.33-.52.91-.83,1.52-.81,1.18,0,1.82.73,1.82,2.18h0Z"/>
  <path d="M85.19,51.13c-.45,1.34-.94,1.67-2,1.67-.15.02-.3.02-.45,0v-.76c.14.04.28.06.42.06.66,0,.91-.25,1.24-1.18l-1.9-5.26h.94l1.41,4.14,1.46-4.17h.91l-2.03,5.5Z"/>
</svg>