<?xml version="1.0" encoding="UTF-8"?>
<svg id="Layer_1" data-name="Layer 1" xmlns="http://www.w3.org/2000/svg" viewBox="0 0 179.62 30.16">
  <path d="M145.98,12.41v-1.41h-4.18v7h1.51v-2.68h2.41v-1.37h-2.41v-1.54h2.67ZM149.52,18.16c1.67,0,2.92-1.23,2.92-2.86s-1.25-2.85-2.92-2.85-2.92,1.22-2.92,2.85,1.25,2.86,2.92,2.86ZM149.52,16.78c-.84,0-1.44-.6-1.44-1.48s.6-1.48,1.44-1.48,1.44.61,1.44,1.48-.6,1.48-1.44,1.48ZM156.26,12.57c-.7,0-1.18.22-1.57.7l-.26-.67h-.93v5.4h1.46v-2.8c0-.88.32-1.25,1.14-1.25h.64v-1.38h-.48ZM165.4,11h-1.62l-1.62,2.81-1.61-2.81h-1.61l2.44,4.17v2.83h1.55v-2.82l2.47-4.18ZM167.9,18.16c1.67,0,2.92-1.23,2.92-2.86s-1.25-2.85-2.92-2.85-2.92,1.22-2.92,2.85,1.25,2.86,2.92,2.86ZM167.9,16.78c-.84,0-1.44-.6-1.44-1.48s.6-1.48,1.44-1.48,1.44.61,1.44,1.48-.6,1.48-1.44,1.48ZM174.34,18.16c1.53,0,2.54-.98,2.54-2.44v-3.12h-1.46v2.96c0,.76-.4,1.22-1.08,1.22s-1.08-.45-1.08-1.22v-2.96h-1.46v3.12c0,1.46,1.02,2.44,2.54,2.44ZM178.07,18h1.55v-1.56h-1.55v1.56ZM145.98,24.41v-1.41h-4.18v7h1.51v-2.68h2.41v-1.37h-2.41v-1.54h2.67ZM149.52,30.16c1.67,0,2.92-1.23,2.92-2.86s-1.25-2.85-2.92-2.85-2.92,1.22-2.92,2.85,1.25,2.86,2.92,2.86ZM149.52,28.78c-.84,0-1.44-.6-1.44-1.48s.6-1.48,1.44-1.48,1.44.61,1.44,1.48-.6,1.48-1.44,1.48ZM156.26,24.57c-.7,0-1.18.22-1.57.7l-.26-.67h-.93v5.4h1.46v-2.8c0-.88.32-1.25,1.14-1.25h.64v-1.38h-.48ZM161.31,28.6v-5.6h-1.51v7h4.2v-1.4h-2.69ZM164.92,23.88h1.45v-1.35h-1.45v1.35ZM164.92,30h1.46v-5.4h-1.46v5.4ZM171.08,24.68h-1.39v-.46c0-.38.2-.58.59-.58h.79v-1.15h-1.08c-1.14,0-1.72.66-1.72,1.7v.49h-.94v1.2h.93v4.12h1.46v-4.12h1.36v-1.2ZM177.07,27.29c0-1.56-1.14-2.84-2.8-2.84s-2.8,1.23-2.8,2.85,1.21,2.86,2.8,2.86c1.26,0,2.29-.75,2.68-1.93h-1.53c-.22.39-.64.63-1.15.63-.71,0-1.19-.41-1.32-1.15h4.09c.02-.14.03-.28.03-.42ZM174.27,25.7c.66,0,1.13.36,1.34,1.02h-2.62c.17-.64.63-1.02,1.28-1.02ZM177.97,30h1.55v-1.56h-1.55v1.56Z"/>
  <path d="M57.33,0h-5.29v28.98s6.71-.04,6.71-.04l-.04-27.84c0-.69-.65-1.1-1.39-1.1Z"/>
  <path d="M136.38,2.81l-1.03,2.43-1.1-2.43h-.62v3.71h.58v-2.35l.82,1.82h.6l.77-1.84v2.37h.61v-3.71h-.63,0ZM129.99,2.81v.51h1.28v3.2h.65v-3.2h1.27v-.51h-3.21Z"/>
  <path d="M119.71,17.79c-.02,3.5-2.91,6.12-6.83,6.12s-6.78-2.62-6.75-6.12c.02-3.5,2.92-6.11,6.84-6.11s6.77,2.61,6.75,6.11M125.4,6.64h-4.77v2.13c-2.14-1.72-4.97-2.73-8.17-2.73-7.5,0-13.11,5.02-13.15,11.75-.05,6.75,5.5,11.82,12.99,11.82,3.15,0,5.94-.98,8.09-2.66l-.02,1.99h5.97V7.47c0-.45-.47-.82-.94-.82"/>
  <path d="M16.35,17.78l-5.13,10.84h6.9l4.31-9.86c-2.11-.24-4.14-.57-6.08-.98Z"/>
  <path d="M51.06,11.86c0-1.32-1.12-2.38-2.51-2.38-.29,0-.59.05-.85.14-5.52,2.37-12.45,4.08-20.04,4.71-1.11.09-2.22.16-3.32.21l4.11-9.5,3.41,7.91c3.34-.71,6.49-1.67,9.37-2.82l-4.17-8.93c-.28-.59-1.02-1.18-1.75-1.21h-10.55l-6.78,14.52c-8.77-.43-13.84-1.27-17.97-5.65,4.81,5.97,10.87,8.37,24.82,9.02,3.15.14,6.2.08,9.1-.17l4.84,11.25h11.27l-6.07-12.98c2.11-.58,4.06-1.26,5.81-2.05.78-.41,1.29-1.17,1.29-2.08"/>
  <path d="M97.37,28.91l.09-13.99c.03-5.23-3.36-8.85-8.23-8.85-2.99,0-6,1.4-7.62,3.57-1.35-2.24-3.49-3.57-6.48-3.57-2.77,0-5.35,1.3-7.04,3.3l-.79-1.86c-.25-.57-.69-.9-1.18-.9h-3.54v22.3h6.11l.07-12.06c.02-3.49,1.75-5.48,4.63-5.48,2.28,0,3.47,1.57,3.44,4.55l-.04,13h6.16l.07-12.07c.02-3.49,1.72-5.48,4.56-5.48,2.3,0,3.52,1.57,3.51,4.55l.03,12.96,6.24.04h0Z"/>
</svg>