<?xml version="1.0" encoding="UTF-8"?>
<svg id="Layer_1" data-name="Layer 1" xmlns="http://www.w3.org/2000/svg" viewBox="0 0 3326.76 1117.96">
  <path d="M1583.32,450.03c2.57-6.19,4.28-10.11,5.85-14.09,54.81-139.12,109.64-278.24,164.47-417.35.84-2.52,1.84-4.99,3-7.38,4.29-7.74,11-11.37,19.82-10.87,7.93.45,12.65,4.43,14,13,2,12.48,3.46,25.06,5.09,37.61,8.61,66,17.22,132.03,25.81,198.1,6.33,48.87,12.48,97.77,18.81,146.64,3.63,28.06,7.48,56.1,11.17,84.15.6,4.54.83,9.12,1.29,14.29h-48.55l-51.52-396.65-2.65-.42c-1.55,3.46-3.25,6.86-4.63,10.39-40.36,103.29-80.69,206.59-121,309.9-12.11,31.02-24.21,62.04-36.31,93.07-.96,2.84-2.16,5.59-3.59,8.22-6.5,10.72-19.39,10.9-26.09.37-1.5-2.59-2.77-5.31-3.78-8.13-53.71-132.79-107.42-265.56-161.12-398.31-1.55-3.83-3.38-7.55-6.92-10.86-.86,2.4-1.59,4.84-2.18,7.32-14.89,79.86-30,159.68-44.45,239.61-6.94,38.32-12.71,76.85-19,115.29-.37,2.3-.42,4.64-.79,6.94-1.07,6.6,1.92,11.32,7.61,13.68,6.4,2.65,13.2,4.36,19.9,6.21,3.7,1,7.56,1.5,13,2.54-9.29,2.54-117.31,2.74-126.58-.5,3.69-.74,7.38-1.53,11.08-2.22,22.17-4.18,28.06-9.75,32.49-31.75,20.22-100.53,40.39-201.06,60.51-301.61,9.36-46.68,18.83-93.33,28.06-140,1.66-8.4,5.9-14.18,14.22-16.15,8.8-2.08,15.75,1.57,20.74,8.7,2.15,3.34,3.93,6.9,5.31,10.62,57.25,139.22,114.49,278.45,171.7,417.68,1.41,3.41,2.93,6.67,5.23,11.96Z"/>
  <path d="M3247.07,634.94c-14.18,7.35-29.8,10.68-45.53,13.05-68.22,10.29-135.33,6.24-201.46-14.62-55.54-17.52-104.37-46.45-149.35-82.84-57.38-46.43-109.94-97.94-160.94-151.16-33.89-35.37-68.21-70.33-102.16-105.65-3.73-4.24-9.2-6.54-14.84-6.24-22.66.33-45.33.11-68,.15-3.24,0-6.48.32-10.51.54v10.69c0,41.33-.27,82.66.16,124,.13,12.59,2.08,25.18,3.44,37.74.52,3.29,1.36,6.52,2.52,9.64,2.65,8.23,7.69,13.9,16.71,15.19,7.9,1.12,15.77,2.38,23.67,3.44,3.15.42,6.35.48,9.28.69.16.71.24,1.43.24,2.15-.08.27-.29.49-.56.59-1.62.3-3.26.49-4.9.56-48.57,0-97.14,0-146.15-1.59,1.42-.92,2.91-1.7,4.47-2.35,6.33-2,12.7-3.93,19.09-5.79,7.15-2.06,11.52-6.83,12.59-14,1.85-12.49,4.43-25,4.54-37.58.67-79,.76-158,1-237,.19-58.99.36-117.99.51-177V.83c3.79-.26,6.68-.63,9.56-.63,41.33,0,82.66-.12,124,0,24.42-.01,48.53,5.41,70.59,15.89,36.07,17.09,57.85,45.06,63.29,85,4.24,31.17,2.43,61.89-8.47,91.61-11.92,32.52-32.65,57.74-63.49,74.2-1.42.76-2.72,1.71-4.76,3,10,10.92,19.52,21.55,29.23,32,59.77,64.6,120.18,128.57,185.64,187.51,42.71,38.45,88.1,73.4,139.35,99.93,50.44,26.11,103.67,43.78,160.54,48.54,30.59,2.56,61.27,1.53,91.81-1.92,2.98-.23,5.93-.65,8.89-1.02ZM2502.39,140.7c0,33.66.14,67.33-.13,101,0,6.15,1.75,10.21,7.41,12.56,2.76,1.15,5.36,2.75,8.19,3.7,30.88,10.37,61.88,9.47,92-1.8,23.22-8.67,37.27-27.3,46-50,10.31-26.72,11.7-54.52,9.1-82.66-1.35-14.69-4.92-28.91-11.61-42.15-13.12-26-32.76-44.73-61.72-51.09-26-5.7-52.34-4.87-78.51-.56-10.29,1.7-10.77,2.72-10.78,13-.02,32.67,0,65.33.05,98Z"/>
  <path d="M426.29,140.14c-.98-2.54-1.8-5.15-2.45-7.8-1.38-7.53-2.49-15.1-3.71-22.66-4.1-25.57-18.17-43.79-40.84-55.83-15.98-8.32-33.2-13.98-51-16.77-39.67-6.6-79.53-8.6-119.42-2.31-60.71,9.55-105.54,40.48-130,98.09-10.07,23.69-17.81,48.11-20.14,73.91-3.16,35.07-2.16,69.9,7.37,104.07,16.95,60.71,54.12,104,112.6,127.85,43.88,17.9,89.5,28.27,137.31,26,23.92-1.14,46.92-6.32,67.76-18.49,8.8-5.14,16.71-11.81,26.07-18.54.1,8.4.23,16.5.28,24.6s0,16,0,24.28c-12.85,5.85-26.21,8.66-39.47,11.47-34,7.22-68.42,11.34-103.2,9.82-57-2.5-111.34-15.72-161.09-44.59-44.19-25.65-76.58-61.51-93.51-110.38-8.38-24.19-11.14-49.32-12.34-74.65-1.8-37.83.91-75.26,12.37-111.63,19.6-62.22,61.3-104,120.3-129.75C170.24,10.66,209.11,2.48,249.39.7c60.39-2.61,119.71,4.78,178.39,18.34,2.26.52,4.46,1.32,8.12,2.43-.55,12.95-1.14,26.1-1.66,39.26-.52,13.32-.64,26.66-1.54,39.95-.88,13,1.16,26.37-3.09,39l-3.32.46Z"/>
  <path d="M1113.7,15.48c2.28,29.61-1.64,78.62-7.63,88.74-1.41-4.29-2.69-7.59-3.54-11-.91-3.55-1.58-7.16-2-10.8-2.42-21.56-14.8-35.18-34.45-42.58-24-9-48.72-14.06-74.41-8.88-25.21,5.08-45.08,17.65-52,43.82-7.12,27.08-4.22,53.5,14.81,75.25,15.76,18,33.14,34.66,50.48,51.2,33.06,31.53,65.84,63.23,94,99.41,43.22,55.5,67.75,118.83,79.07,187.64,13.12,79.76-2.65,154.3-41.81,224.39-2.55,4.85-6.03,9.14-10.24,12.65,1.28-3.06,2.49-6.16,3.84-9.19,17-38,28.38-77.53,31.63-119.13,5.94-75.92-15.53-144.08-58.53-206.22-23.78-34.36-53.91-62.36-85.7-89-25.27-21.16-50.24-42.75-74.44-65.12-17.88-16.6-32.67-36.24-43.71-58-8.27-16.16-14-33.11-15.18-51.37-2.37-35.85,11-65.15,37.7-88.49,26.28-23,57.73-34.05,91.93-37.59,31.95-3.27,64.23.75,94.41,11.76,1.9.63,3.68,1.51,5.77,2.51Z"/>
  <path d="M2140.24,106.3c-1.27,2.94-2.77,5.8-3.78,8.83-37.55,113.47-75.06,226.95-112.51,340.46-1.96,5.64-3.25,11.5-3.82,17.45-.74,9.55,1.65,12.55,10.76,15.27,7.59,2.26,15.3,4.14,23.8,6.41-8.06,2.51-108.16,3.39-138.74,1.36,3.48-1.55,5.19-2.64,7.06-3.09,9.38-2.27,18.76-4.55,28.22-6.47s16.68-7,21.07-15.36c6.18-11.76,12.66-23.51,17.33-35.9,48.24-127.71,96.29-255.49,144.14-383.35,6.19-16.49,12.41-33,19.53-51.91l178,496.22h-47.91c-23.13-64.73-46.35-129.9-69.71-195s-46.31-130.12-69.87-195l-3.57.08Z"/>
  <path d="M3049.47,496.48h-135.87l-.41-1.1c1.77-.96,3.61-1.76,5.52-2.4,9.38-2.28,18.76-4.56,28.21-6.5,9.11-1.87,16.11-6.79,20.34-14.78,6.52-12.33,13.36-24.65,18.27-37.65,53.02-140.49,105.84-281.06,158.47-421.7,1.26-3.34,2.7-6.61,4.83-11.8l177.93,495.86h-47.37c-46.89-129.87-93.74-259.51-140.53-388.93-.16-.44-1.12-.58-2.87-1.42-1.48,2.76-2.79,5.61-3.94,8.52-37.89,114.41-75.7,228.85-113.44,343.3-1.78,5.7-2.76,11.63-2.92,17.6-.29,7.5,1.83,10.05,9.11,12.33,6.66,2.08,13.51,3.58,20.25,5.39,1.53.41,3,1.09,4.48,1.65l-.06,1.63Z"/>
  <path d="M705.49,3.23l176.9,493.07h-47.8c-9.23-25.73-18.5-51.6-27.81-77.59-9.31-25.99-18.61-52.01-27.89-78.06-9.41-26.33-18.83-52.67-28.25-79-9.3-26-18.53-52.06-27.92-78-9.33-25.82-17.93-51.93-28.18-77.64-5.68,1.83-5.86,5.85-6.94,9.11-11.47,34.39-22.91,68.81-34.3,103.25-26.12,79.01-52.2,158.05-78.24,237.11-1.71,5.04-2.95,10.22-3.72,15.48-1.46,10.75,1.22,14.62,11.44,17.62,7.33,2.15,14.72,4.12,22.07,6.2.18.05.25.53.6,1.36h-136.76l-.27-1.29c2-.66,4.06-1.45,6.15-1.95,9.06-2.15,18.1-4.5,27.24-6.22,9.94-1.87,17.28-7.32,21.8-15.94,6.49-12.35,13.15-24.74,18.06-37.75,52.87-140.17,105.53-280.42,158-420.73,1.14-3,2.48-6,3.72-9l2.1-.03Z"/>
  <path d="M1683.39,929.53c-3.77-2.25-6.91-3.14-8.41-5.21-3.36-4.64-7.95-5.65-13-6.2-14.95-1.64-29.1,1.45-43.91,7.08,2.33,2.63,4.12,4.83,6.09,6.84,15.49,15.83,20.1,34.6,12.56,55.17-4.24,11.91-10.13,23.17-17.51,33.44-28.68,38.85-65.22,68.31-110,86.91-20.23,8.41-41.23,12.58-63.44,9.25-27.15-4.07-33.34-26.62-28.85-44.71,2.78-10.72,8.15-20.59,15.62-28.76,11.73-13.15,23.62-26.33,36.79-38,33.08-29.26,70-53.13,108.56-74.54,2.85-1.59,5.66-3.25,9.82-5.64-5.14-2.66-9-5.27-13.27-6.77-17.26-6.07-34.7-11.63-52-17.71-12.23-4.31-24.66-8.35-36.26-14-9.58-4.65-18.49-10.56-26.49-17.58-17-15.12-18.85-33.94-6.3-52.9,8.56-12.92,19.75-23.44,31.86-32.91,24.23-18.95,50.14-35.28,78.23-47.92,25-11.25,50.82-20.13,78.22-23.11,8.6-.95,17.28-.62,25.78,1,16.67,3.3,24.72,16.08,20.7,32.65-1.93,8-4.86,16.19-9.44,22.85-8.84,12.85-19.09,24.73-28.92,36.88-5,6.18-10.18,12.23-15.64,18-2.28,2.36-5.06,4.19-8.13,5.36-4.41,1.66-8.61.44-11.62-3.41-2.96-3.45-3.08-8.5-.29-12.08,2.19-2.93,4.68-5.61,7.44-8,13.8-12.67,26.64-26.19,36.7-42.07,3.61-5.59,6.58-11.57,8.86-17.82,3.31-9.4.13-14.36-10-14.52-9.64-.3-19.28.56-28.72,2.57-56.7,13.1-106.49,39.6-149.27,79.05-4.88,4.53-9.16,9.67-12.73,15.29-5.92,9.33-5.19,18.59,2.55,26.51,5.25,5.57,11.38,10.24,18.15,13.81,12.52,6.2,25.39,11.66,38.55,16.34,26,9.31,52.77,16.52,77,30.45,2.36,1.36,6.32.74,9.32.07,10-2.27,19.87-6,30-7.22,8.76-1.06,18-.28,26.74,1.12,10.21,1.63,14.37,7.66,14.66,20.44ZM1462.11,1107.48c12.74-.17,25.34-2.71,37.15-7.5,48.12-19.23,86.31-50.82,115.42-93.5,3.53-5.25,6.54-10.84,9-16.67,8.93-20.89,4.59-38-12.92-52.62-7.65-6.37-8-6.49-16.58-1.59-36.43,20.94-71.39,44.12-104.11,70.49-12.94,10.43-25.32,21.64-37.23,33.24-6.86,6.68-12.64,14.58-18.23,22.41-4.9,6.85-7.26,15.19-6.65,23.59.62,10.32,5.53,17,15.52,19.45,6.04,1.47,12.4,1.8,18.63,2.7Z"/>
  <path d="M1790.39,937.83c-3.57,2.74-7.18,5.42-10.69,8.23-16.63,13.34-33,27-50,39.93-7.89,6-16.78,10.79-25.53,15.54-3.86,1.95-8.06,3.14-12.37,3.52-11.74,1.27-19.3-5.35-19.38-17.27.06-5.32.92-10.6,2.55-15.67,4.46-14.6,12.64-27.11,23.12-38.1,5.65-5.93,12-7.42,15.8-4.2s3,8.85-1.8,16c-6.5,9.67-13,19.39-19.15,29.26-4.38,7-4.63,9.63-3.12,16.81,4.65,2.16,8.48-.53,12-2.73,8.75-5.46,17.53-11,25.7-17.23,15.33-11.76,30.17-24.14,45.34-36.1,6-4.74,12.24-9.22,18.61-13.45,2.76-1.85,5.85-3.15,9.1-3.82,8.34-1.59,12.92,2.88,11.56,11.3-.71,3.59-1.91,7.06-3.56,10.32-6.43,13.81-13,27.54-18.74,42.07,1.72-1.71,3.57-3.31,5.15-5.14,10.65-12.37,21.14-24.88,31.94-37.12,2.99-3.57,6.56-6.61,10.56-9,6.55-3.64,13-.45,14.3,7,.83,4.86.29,9.95.35,14.93.09,7.65-.41,15.36.42,22.93,1,8.71,4.7,11.76,13.5,10.85,5.61-.51,11.05-2.16,16-4.85,17.15-9.71,32.02-22.99,43.59-38.95,4.73-6.85,9.96-13.33,15.65-19.41,3.99-3.96,8.7-7.13,13.87-9.33,7.45-3.23,14.88-.09,18.8,6.7,4.11,7.12,2.81,17.35-2.83,22.11-3.76,3.18-8.18,2.93-11.32-.84-1.24-1.78-2.35-3.64-3.33-5.57-13.95,13.72-24.42,28.79-29.94,47.06-.52,1.93-.78,3.93-.77,5.93-.17,7.4,2.57,10.46,10.13,10.32,3.99-.02,7.93-.8,11.63-2.29,7.39-3.01,14.53-6.61,21.36-10.74,21.69-13.73,42.57-28.55,60.52-47.15,7.49-7.66,16.63-13.5,26.72-17.09,7-2.59,12.89-1.38,16.48,3s3.9,10.53,0,16.77c-2.1,3.35-4.41,7-7.53,9.22-12.11,8.66-24.13,17.71-39.45,20.11-5.34,13.52-.91,20.35,13.19,19,6.83-.65,13.68-2.84,20.16-5.29,24.72-9.34,47.75-22,69.52-36.91,3.23-2.22,7-7.5,10.83-2.16,3.05,4.29-1.92,7.09-5,9.42-24.81,18.88-51.66,34.1-81.2,44.27-5.05,1.69-10.25,2.9-15.53,3.62-16.2,2.35-27.13-6.87-27.95-23.31-.11-2.2,0-4.41,0-8.05-3.78,2.73-6.33,4.71-9,6.47-13.06,8.59-25.93,17.51-39.35,25.5-5.9,3.51-12.79,5.75-19.51,7.37-19.7,4.76-32.62-6.09-32.14-26.47.06-2.64.26-5.27.46-9.16-2.59,1.55-4.4,2.56-6.13,3.69-7,4.53-13.63,9.62-21,13.46-5.3,2.79-11.06,4.6-17,5.35-16.51,1.9-27-7-28.18-23.53-.57-7.85-.1-15.78-.1-25.73-3,2.95-4.76,4.26-6,5.92-13,16.88-26,33.83-39,50.72-2.16,2.96-4.56,5.73-7.18,8.29-4.89,4.52-10.5,5.36-15.63,2.57-5.52-3-8.42-7.89-7.54-14,.67-5.28,2.15-10.43,4.39-15.26,6.87-14,14.35-27.8,21.58-41.67,1.15-2.21,2.22-4.45,3.33-6.68l-1.26-1.29Z"/>
  <path d="M2413.02,830.48c2.83-2.71,4.67-5.51,7.24-6.62,2.66-1.05,5.61-1.08,8.29-.1,3,1.26,3.65,4.52,2.24,7.72s-3,6.69-4.52,10c-8.94,19-18,37.87-26.84,56.89-7.14,15.4-13.56,31.14-21.09,46.34-13.8,27.86-23.61,57.2-33.3,86.6-.62,1.89-.72,4.18-1.89,5.61s-3.42,2.5-4.88,2.19c-1.77-.65-3.13-2.11-3.65-3.93-.31-2.3-.05-4.65.75-6.83,5.73-18.41,10.64-37.15,17.61-55.08,12.54-32.26,26.33-64,39.6-96,1.24-3,2.44-6,2.21-10.3-2.38,2.3-4.73,4.64-7.16,6.88-14.93,13.76-29.67,27.73-44.92,41.12-5.44,4.78-12,8.41-18.29,12.07-3.47,1.96-7.23,3.37-11.13,4.19-9.5,2.08-15.68-2.66-15.93-12.47,0-4.65.68-9.27,2-13.72,1.19-4.16,2.86-8.16,5-11.92,12.19-22,26.81-42.15,45-59.59,8.7-8.36,18.33-15.48,30.16-19,15.31-4.5,23.47-1.14,31.46,12.89.41.89,1.07,1.67,2.04,3.06ZM2400.39,845.21c-2-3.49-3.43-6.08-4.89-8.66-4.37-7.71-6.35-9.11-14.26-5.69-7.65,3.18-14.81,7.42-21.27,12.6-20,16.63-34.59,37.66-47,60.28-2.42,4.42-3.26,9.71-4.84,14.59l1.71,1.76c3.56-1.22,7.45-1.88,10.6-3.79,7.14-4.26,14.04-8.91,20.65-13.95,21.7-16.76,39.82-37.23,59.3-57.14Z"/>
  <path d="M2592.33,924.72h81c1.85-3.93,3.53-7.52,5.22-11.1,7.83-16.55,15.87-33,23.42-49.67,3.82-8.44,6.63-17.35,10.16-25.93,1.88-4.55,3.74-9.32,6.69-13.16,2.72-3.53,7.13-5,11.65-2.43,4.83,2.74,4.46,7.09,2.87,11.37-1.85,5-3.97,9.9-6.35,14.68-11.18,22.32-22.5,44.57-33.75,66.86-1.45,2.87-2.75,5.81-4.28,9.05l23.34,6.35c-.09,6.53-2.23,8.3-7.55,7.11-6.75-1.52-13.64-2.38-20-3.44-1.43,1.53-2.34,2.13-2.72,3-13,29.17-26,58.32-38.85,87.57-3,6.77-5.06,9.35-8.32,7.5-5.2-3-3.06-7.48-1.49-11.41,8.62-21.63,17.33-43.22,26.12-64.77,2.74-6.71,5.81-13.29,9.48-21.63-4.89,0-8.36-.15-11.81,0-22.61,1.16-45.21,2.43-67.82,3.58-3.33.29-6.68.23-10-.17-7.23-1.14-10.3-6.37-7.45-13.11,1.46-3.34,3.58-6.36,6.22-8.88,32.03-30.59,64.16-61.1,96.37-91.51,5.72-5.41,9.78-6.2,13.13-3.38s3.09,7.35-3.07,13.76c-18.46,19.2-37.11,38.22-56.11,56.89-11.04,10.89-22.98,20.99-36.1,32.87Z"/>
  <path d="M2554.24,813.42c-9.62,2.06-19.36,3.73-28.85,6.29-11.87,3.2-23.46,7.45-35.34,10.63-5.74,1.57-11.68,2.27-17.63,2.08-3.16-.13-6.77-2.56-9.17-5-3.79-3.79-3.87-8.56-1.11-11.76,3.14-3.63,6.87-3.64,10.75-1.25,6,3.66,12,2.75,18.23.71,19-6.2,37.76-13.07,57.74-15.54.66-.08,1.29-.32,2-.42,6.14-1,12.26-1.08,16.42,4.44,4.46,5.91,4.08,12.63.92,18.9-5.39,10.69-10.91,21.35-17,31.68-30.38,51.7-57.68,105-84.39,158.66-5.19,10.41-9.53,21.25-14.25,31.89-.94,2.13-1.35,4.77-2.89,6.26-1.66,1.42-3.84,2.06-6,1.76-1.23-.24-3-3.08-2.75-4.52.51-3.96,1.58-7.82,3.18-11.47,10.51-23,20.54-46.26,32.06-68.75,22.45-43.84,45.81-87.22,68.73-130.82,3.8-7.22,7.25-14.63,10.87-21.95l-1.52-1.82Z"/>
  <path d="M2202.39,1015.24c1.32-4.44,2.51-10,4.6-15.23,10.55-26.23,21.08-52.48,32.12-78.5,10.13-23.89,20.89-47.52,31.43-71.23,1.47-3.32,3.3-6.26,1.46-10.29-.68-2.21-.31-4.6,1-6.5,3.76-4.61,7.87-8.92,12.28-12.91,2.8-2.64,7.07-2.96,10.23-.76,3.57,2.16,5.25,6.43,4.13,10.45-.75,3.24-1.83,6.39-3.23,9.41-4.87,10.57-9.95,21.05-14.92,31.58-20.19,42.71-40.34,85.44-60.46,128.18-2.74,6.06-4.91,12.35-6.5,18.81-1,4-1.88,7.43-6.75,6.61-4.67-.78-4.98-4.78-5.39-9.62Z"/>
  <path d="M1722.19,924.38c-2.72-1.9-5.31-2.91-6.64-4.8-2.79-4,.48-11.76,5.92-15.23,4.24-2.69,10.05-1.27,13,3.19,2.1,3.17,2.2,6.71-.52,9.1-3.33,2.94-7.45,4.98-11.76,7.74Z"/>
</svg>