<svg xmlns="http://www.w3.org/2000/svg" xmlns:xlink="http://www.w3.org/1999/xlink" width="2000" zoomAndPan="magnify" viewBox="0 0 1500 749.999995" height="1000" preserveAspectRatio="xMidYMid meet" version="1.0"><defs><clipPath id="2db7e4286f"><path d="M 550 197.726562 L 691 197.726562 L 691 438 L 550 438 Z M 550 197.726562 " clip-rule="nonzero"/></clipPath><clipPath id="19bdb3f8f6"><path d="M 1382 471 L 1442 471 L 1442 552.476562 L 1382 552.476562 Z M 1382 471 " clip-rule="nonzero"/></clipPath><clipPath id="02711af408"><path d="M 802 471 L 873 471 L 873 552.476562 L 802 552.476562 Z M 802 471 " clip-rule="nonzero"/></clipPath><clipPath id="4af0dcd6a4"><path d="M 590 471 L 662 471 L 662 552.476562 L 590 552.476562 Z M 590 471 " clip-rule="nonzero"/></clipPath><clipPath id="49a47c6989"><path d="M 403 471 L 469 471 L 469 552.476562 L 403 552.476562 Z M 403 471 " clip-rule="nonzero"/></clipPath><clipPath id="20b1cb938b"><path d="M 109 471 L 181 471 L 181 552.476562 L 109 552.476562 Z M 109 471 " clip-rule="nonzero"/></clipPath><clipPath id="8dc6aa9bad"><path d="M 27 471 L 94 471 L 94 552.476562 L 27 552.476562 Z M 27 471 " clip-rule="nonzero"/></clipPath></defs><path fill="#090909" d="M 0.0117188 372.304688 L 0.0117188 364.453125 L 41.730469 364.453125 L 41.730469 372.304688 C 41.730469 398.910156 57.160156 408.789062 76.695312 408.789062 C 96.226562 408.789062 113.34375 398.910156 113.34375 372.304688 L 113.34375 270.203125 L 76.738281 270.203125 L 76.738281 247.402344 L 155.0625 247.402344 L 155.0625 372.304688 C 155.0625 418.417969 121.0625 441.21875 76.695312 441.21875 C 32.324219 441.21875 0.0117188 418.417969 0.0117188 372.304688 Z M 0.0117188 372.304688 " fill-opacity="1" fill-rule="nonzero"/><path fill="#090909" d="M 178.082031 365.71875 L 178.082031 247.402344 L 220.039062 247.402344 L 220.039062 363.945312 C 220.039062 393.84375 233.542969 408.789062 259.101562 408.789062 C 284.660156 408.789062 298.886719 393.589844 298.886719 363.945312 L 298.886719 247.402344 L 340.605469 247.402344 L 340.605469 367.492188 C 340.605469 412.84375 310.464844 441.21875 259.101562 441.21875 C 207.742188 441.21875 178.082031 412.84375 178.082031 365.71875 Z M 178.082031 365.71875 " fill-opacity="1" fill-rule="nonzero"/><path fill="#090909" d="M 534.371094 247.402344 L 470.953125 437.417969 L 423.558594 437.417969 L 358.695312 247.402344 L 403.304688 247.402344 L 447.191406 397.640625 L 447.804688 397.640625 L 491.449219 247.402344 Z M 534.371094 247.402344 " fill-opacity="1" fill-rule="nonzero"/><g clip-path="url(#2db7e4286f)"><path fill="#090909" d="M 690.335938 247.386719 L 690.335938 280.320312 L 592.195312 280.320312 L 592.195312 331.753906 L 679.96875 331.753906 L 679.96875 354.558594 L 592.195312 354.558594 L 592.195312 404.46875 L 690.335938 404.46875 L 690.335938 437.40625 L 550.238281 437.40625 L 550.238281 247.386719 Z M 672.25 215.96875 L 577.726562 235.222656 L 574.351562 217.234375 L 668.875 197.726562 Z M 672.25 215.96875 " fill-opacity="1" fill-rule="nonzero"/></g><path fill="#090909" d="M 790.1875 437.417969 L 714.472656 437.417969 L 714.472656 247.402344 L 790.1875 247.402344 C 849.023438 247.402344 883.503906 282.363281 883.503906 342.410156 C 883.503906 402.457031 849.023438 437.417969 790.1875 437.417969 Z M 788.5 404.734375 C 820.8125 404.734375 841.066406 382.695312 841.066406 342.410156 C 841.066406 302.125 821.050781 280.085938 788.5 280.085938 L 756.429688 280.085938 L 756.429688 404.734375 Z M 788.5 404.734375 " fill-opacity="1" fill-rule="nonzero"/><path fill="#090909" d="M 1040.535156 247.402344 L 1040.535156 280.335938 L 942.394531 280.335938 L 942.394531 331.769531 L 1030.164062 331.769531 L 1030.164062 354.570312 L 942.394531 354.570312 L 942.394531 404.484375 L 1040.535156 404.484375 L 1040.535156 437.417969 L 900.4375 437.417969 L 900.4375 247.402344 Z M 1040.535156 247.402344 " fill-opacity="1" fill-rule="nonzero"/><path fill="#090909" d="M 1145.246094 354.570312 L 1106.667969 354.570312 L 1106.667969 437.417969 L 1064.710938 437.417969 L 1064.710938 247.402344 L 1162.128906 247.402344 C 1197.089844 247.402344 1219.035156 270.710938 1219.035156 299.339844 C 1219.035156 320.621094 1206.496094 339.625 1186 349.503906 L 1227.714844 437.417969 L 1184.550781 437.417969 Z M 1106.667969 334.304688 L 1147.660156 334.304688 C 1163.574219 334.304688 1176.355469 324.929688 1176.355469 308.207031 C 1176.355469 289.964844 1166.226562 280.085938 1147.660156 280.085938 L 1106.667969 280.085938 Z M 1106.667969 334.304688 " fill-opacity="1" fill-rule="nonzero"/><path fill="#090909" d="M 1284.996094 288.445312 L 1283.898438 288.445312 L 1284.382812 437.417969 L 1243.628906 437.417969 L 1243.628906 247.402344 L 1303.320312 247.402344 L 1340.9375 375.09375 L 1342.035156 375.09375 L 1379.894531 247.402344 L 1439.347656 247.402344 L 1439.347656 437.417969 L 1398.589844 437.417969 L 1399.066406 288.445312 L 1397.972656 288.445312 L 1355.777344 437.417969 L 1327.195312 437.417969 Z M 1284.996094 288.445312 " fill-opacity="1" fill-rule="nonzero"/><path fill="#090909" d="M 1473.902344 243.5625 C 1484.453125 243.5625 1493.398438 251.375 1493.398438 264.003906 C 1493.398438 276.628906 1484.46875 284.441406 1473.902344 284.441406 C 1463.332031 284.441406 1454.402344 276.585938 1454.402344 264.003906 C 1454.402344 251.421875 1463.347656 243.5625 1473.902344 243.5625 Z M 1473.902344 281.859375 C 1482.980469 281.859375 1490.671875 275.039062 1490.671875 264.003906 C 1490.671875 252.964844 1482.980469 246.144531 1473.902344 246.144531 C 1464.820312 246.144531 1457.128906 252.894531 1457.128906 264.003906 C 1457.128906 275.109375 1464.804688 281.859375 1473.902344 281.859375 Z M 1481.769531 259.070312 C 1481.769531 262.042969 1480.105469 264.28125 1477.28125 265.269531 L 1482.613281 274.949219 L 1478.632812 274.949219 L 1473.832031 265.546875 L 1470.4375 265.546875 L 1470.4375 274.949219 L 1466.988281 274.949219 L 1466.988281 252.640625 L 1474.433594 252.640625 C 1479.191406 252.640625 1481.796875 254.945312 1481.796875 259.070312 Z M 1474.40625 255.730469 L 1470.410156 255.730469 L 1470.410156 262.4375 L 1474.40625 262.4375 C 1476.96875 262.4375 1478.375 261.238281 1478.375 259.09375 C 1478.375 256.835938 1477.0625 255.753906 1474.40625 255.753906 Z M 1474.40625 255.730469 " fill-opacity="1" fill-rule="nonzero"/><g clip-path="url(#19bdb3f8f6)"><path fill="#090909" d="M 1413.179688 552.496094 C 1393.554688 552.496094 1383.589844 541.863281 1382.28125 527.761719 L 1392.683594 526.242188 C 1394.101562 535.679688 1399.953125 544.035156 1413.507812 544.035156 C 1421.851562 544.035156 1430.632812 540.5625 1430.632812 530.800781 C 1430.632812 521.6875 1425 518.757812 1416 516.914062 L 1404.832031 514.636719 C 1393.882812 512.359375 1385.539062 506.609375 1385.539062 493.375 C 1385.539062 480.464844 1395.941406 471.785156 1412.320312 471.785156 C 1427.605469 471.785156 1439.304688 478.617188 1440.832031 493.699219 L 1430.523438 495.867188 C 1429.230469 485.5625 1423.472656 479.921875 1412.101562 479.921875 C 1402.664062 479.921875 1396.160156 484.585938 1396.160156 492.394531 C 1396.160156 499.882812 1400.171875 503.789062 1408.734375 505.632812 L 1420.011719 508.015625 C 1431.941406 510.511719 1441.253906 515.828125 1441.253906 529.824219 C 1441.253906 541.757812 1432.363281 552.496094 1413.179688 552.496094 Z M 1413.179688 552.496094 " fill-opacity="1" fill-rule="nonzero"/></g><path fill="#090909" d="M 1357.707031 550.671875 L 1338.839844 518.671875 L 1323.230469 518.671875 L 1323.230469 550.671875 L 1312.929688 550.671875 L 1312.929688 473.652344 L 1341.445312 473.652344 C 1361.609375 473.652344 1366.925781 484.933594 1366.925781 496.214844 C 1366.925781 504.894531 1362.476562 514.332031 1349.574219 517.261719 L 1369.3125 550.671875 Z M 1323.230469 482.328125 L 1323.230469 509.992188 L 1340.25 509.992188 C 1352.175781 509.992188 1356.078125 503.917969 1356.078125 496.214844 C 1356.078125 488.292969 1352.070312 482.328125 1340.25 482.328125 Z M 1323.230469 482.328125 " fill-opacity="1" fill-rule="nonzero"/><path fill="#090909" d="M 1249.242188 541.996094 L 1287.40625 541.996094 L 1287.40625 550.671875 L 1238.941406 550.671875 L 1238.941406 473.652344 L 1286.648438 473.652344 L 1286.648438 482.328125 L 1249.242188 482.328125 L 1249.242188 506.84375 L 1284.804688 506.84375 L 1284.804688 515.523438 L 1249.242188 515.523438 Z M 1249.242188 541.996094 " fill-opacity="1" fill-rule="nonzero"/><path fill="#090909" d="M 1172.507812 550.671875 L 1172.507812 473.652344 L 1182.804688 473.652344 L 1182.804688 541.996094 L 1218.367188 541.996094 L 1218.367188 550.671875 Z M 1172.507812 550.671875 " fill-opacity="1" fill-rule="nonzero"/><path fill="#090909" d="M 1106.058594 550.671875 L 1106.058594 473.652344 L 1116.359375 473.652344 L 1116.359375 541.996094 L 1151.917969 541.996094 L 1151.917969 550.671875 Z M 1106.058594 550.671875 " fill-opacity="1" fill-rule="nonzero"/><path fill="#090909" d="M 1066.519531 473.652344 L 1076.820312 473.652344 L 1076.820312 550.671875 L 1066.519531 550.671875 Z M 1066.519531 473.652344 " fill-opacity="1" fill-rule="nonzero"/><path fill="#090909" d="M 1043.792969 482.328125 L 1006.390625 482.328125 L 1006.390625 506.84375 L 1041.949219 506.84375 L 1041.949219 515.523438 L 1006.390625 515.523438 L 1006.390625 550.671875 L 996.089844 550.671875 L 996.089844 473.652344 L 1043.792969 473.652344 Z M 1043.792969 482.328125 " fill-opacity="1" fill-rule="nonzero"/><path fill="#090909" d="M 943.972656 482.328125 L 906.570312 482.328125 L 906.570312 506.84375 L 942.128906 506.84375 L 942.128906 515.523438 L 906.570312 515.523438 L 906.570312 550.671875 L 896.269531 550.671875 L 896.269531 473.652344 L 943.972656 473.652344 Z M 943.972656 482.328125 " fill-opacity="1" fill-rule="nonzero"/><g clip-path="url(#02711af408)"><path fill="#090909" d="M 837.847656 552.496094 C 816.492188 552.496094 802.613281 536.765625 802.613281 512.140625 C 802.613281 486.972656 816.492188 471.785156 837.847656 471.785156 C 859.101562 471.785156 872.976562 486.972656 872.976562 512.140625 C 872.976562 537.09375 859.101562 552.496094 837.847656 552.496094 Z M 837.847656 543.816406 C 853.246094 543.816406 862.136719 531.777344 862.136719 512.140625 C 862.136719 492.394531 853.246094 480.464844 837.847656 480.464844 C 822.453125 480.464844 813.457031 492.394531 813.457031 512.140625 C 813.457031 531.449219 822.453125 543.816406 837.847656 543.816406 Z M 837.847656 543.816406 " fill-opacity="1" fill-rule="nonzero"/></g><path fill="#090909" d="M 684.550781 550.671875 L 684.550781 473.652344 L 697.015625 473.652344 L 729.652344 529.738281 C 731.820312 533.535156 733.230469 536.355469 734.421875 539.609375 L 734.640625 539.609375 C 734.421875 536.894531 734.3125 534.074219 734.3125 529.410156 L 734.3125 473.652344 L 743.527344 473.652344 L 743.527344 550.671875 L 731.0625 550.671875 L 698.425781 494.585938 C 696.257812 490.789062 694.847656 488.1875 693.65625 484.714844 L 693.441406 484.714844 C 693.65625 487.425781 693.765625 490.246094 693.765625 494.914062 L 693.765625 550.671875 Z M 684.550781 550.671875 " fill-opacity="1" fill-rule="nonzero"/><g clip-path="url(#4af0dcd6a4)"><path fill="#090909" d="M 626.128906 552.496094 C 604.769531 552.496094 590.894531 536.765625 590.894531 512.140625 C 590.894531 486.972656 604.769531 471.785156 626.128906 471.785156 C 647.378906 471.785156 661.257812 486.972656 661.257812 512.140625 C 661.257812 537.09375 647.378906 552.496094 626.128906 552.496094 Z M 626.128906 543.816406 C 641.527344 543.816406 650.414062 531.777344 650.414062 512.140625 C 650.414062 492.394531 641.527344 480.464844 626.128906 480.464844 C 610.734375 480.464844 601.734375 492.394531 601.734375 512.140625 C 601.734375 531.449219 610.734375 543.816406 626.128906 543.816406 Z M 626.128906 543.816406 " fill-opacity="1" fill-rule="nonzero"/></g><path fill="#090909" d="M 557.285156 473.652344 L 567.582031 473.652344 L 567.582031 550.671875 L 557.285156 550.671875 Z M 557.285156 473.652344 " fill-opacity="1" fill-rule="nonzero"/><path fill="#090909" d="M 537.808594 473.652344 L 537.808594 482.328125 L 513.632812 482.328125 L 513.632812 550.671875 L 503.332031 550.671875 L 503.332031 482.328125 L 479.15625 482.328125 L 479.15625 473.652344 Z M 537.808594 473.652344 " fill-opacity="1" fill-rule="nonzero"/><g clip-path="url(#49a47c6989)"><path fill="#090909" d="M 438.089844 552.496094 C 414.238281 552.496094 403.398438 534.273438 403.398438 511.925781 C 403.398438 488.273438 415.539062 471.785156 438.417969 471.785156 C 457.171875 471.785156 466.929688 482.847656 468.882812 498.796875 L 458.367188 499.882812 C 456.847656 488.273438 449.800781 480.570312 437.875 480.570312 C 422.804688 480.570312 414.238281 493.15625 414.238281 511.816406 C 414.238281 529.824219 422.371094 543.492188 438.089844 543.492188 C 449.042969 543.492188 456.738281 536.222656 458.90625 524.726562 L 468.882812 526.460938 C 465.953125 540.996094 456.632812 552.496094 438.089844 552.496094 Z M 438.089844 552.496094 " fill-opacity="1" fill-rule="nonzero"/></g><path fill="#090909" d="M 346.714844 541.996094 L 384.878906 541.996094 L 384.878906 550.671875 L 336.414062 550.671875 L 336.414062 473.652344 L 384.121094 473.652344 L 384.121094 482.328125 L 346.714844 482.328125 L 346.714844 506.84375 L 382.277344 506.84375 L 382.277344 515.523438 L 346.714844 515.523438 Z M 346.714844 541.996094 " fill-opacity="1" fill-rule="nonzero"/><path fill="#090909" d="M 269.992188 550.671875 L 269.992188 473.652344 L 280.292969 473.652344 L 280.292969 541.996094 L 315.851562 541.996094 L 315.851562 550.671875 Z M 269.992188 550.671875 " fill-opacity="1" fill-rule="nonzero"/><path fill="#090909" d="M 203.582031 550.671875 L 203.582031 473.652344 L 213.882812 473.652344 L 213.882812 541.996094 L 249.445312 541.996094 L 249.445312 550.671875 Z M 203.582031 550.671875 " fill-opacity="1" fill-rule="nonzero"/><g clip-path="url(#20b1cb938b)"><path fill="#090909" d="M 145.058594 552.496094 C 123.699219 552.496094 109.820312 536.765625 109.820312 512.140625 C 109.820312 486.972656 123.699219 471.785156 145.058594 471.785156 C 166.308594 471.785156 180.183594 486.972656 180.183594 512.140625 C 180.183594 537.09375 166.308594 552.496094 145.058594 552.496094 Z M 145.058594 543.816406 C 160.453125 543.816406 169.34375 531.777344 169.34375 512.140625 C 169.34375 492.394531 160.453125 480.464844 145.058594 480.464844 C 129.660156 480.464844 120.664062 492.394531 120.664062 512.140625 C 120.664062 531.449219 129.660156 543.816406 145.058594 543.816406 Z M 145.058594 543.816406 " fill-opacity="1" fill-rule="nonzero"/></g><g clip-path="url(#8dc6aa9bad)"><path fill="#090909" d="M 62.234375 552.496094 C 38.378906 552.496094 27.539062 534.273438 27.539062 511.925781 C 27.539062 488.273438 39.679688 471.785156 62.558594 471.785156 C 81.3125 471.785156 91.070312 482.847656 93.023438 498.796875 L 82.507812 499.882812 C 80.988281 488.273438 73.941406 480.570312 62.015625 480.570312 C 46.945312 480.570312 38.378906 493.15625 38.378906 511.816406 C 38.378906 529.824219 46.511719 543.492188 62.234375 543.492188 C 73.183594 543.492188 80.878906 536.222656 83.050781 524.726562 L 93.023438 526.460938 C 90.097656 540.996094 80.773438 552.496094 62.234375 552.496094 Z M 62.234375 552.496094 " fill-opacity="1" fill-rule="nonzero"/></g></svg>