<?xml version="1.0" encoding="UTF-8"?>
<svg id="Layer_1" data-name="Layer 1" xmlns="http://www.w3.org/2000/svg" viewBox="0 0 1997.73 660.52">
  <path d="M602.27,659.85c-10.07-1.28-57.99-23.38-56.53-32.53l11.89-12.75c21.4,16.74,41.02,38.15,70.16,24.21,10.98-5.25,22.21-20.06,22.21-32.34v-244.33h52.27v237.51c0,11.16-11.86,33.18-20.41,40.96-9.66,8.8-34.89,17.82-47.78,19.27-7.52.85-24.4.94-31.82,0Z"/>
  <path d="M1997.73,389.38v18.18c-13.21,38-68.85,33.23-70.57-7.87-1.88-45.19,56.77-50.83,70.57-10.31ZM1953.92,369.45c-29.71,6.13-27.97,53.66,4.64,58.12,43.16,5.9,44.29-68.21-4.64-58.12Z"/>
  <path d="M139.77,362.1c97.84,9.91,114.11,114.32,11.26,145.42-2.51.76-4.05-1.56-3.27,3.41l102.24,139.83h-64.77l-101.62-138.14-22.25-.5v138.65H0v-288.65c44.74,3.32,95.78-4.46,139.77,0ZM61.36,503.02h32.95c6.83,0,31.33-12.14,37.56-16.99,43.98-34.25,19.13-112.56-33.01-112.56h-37.5v129.55Z"/>
  <path d="M1189.77,362.1c97.84,9.91,114.11,114.32,11.26,145.42-2.51.76-4.05-1.56-3.27,3.41l102.24,139.83h-64.77l-101.62-138.14-22.25-.5v138.65h-61.36v-288.65c44.74,3.32,95.78-4.46,139.77,0ZM1111.36,503.02h32.95c6.83,0,31.33-12.14,37.56-16.99,43.98-34.25,19.13-112.56-33.01-112.56h-37.5v129.55Z"/>
  <path d="M1888.64,562.12v-200.01h18.18v288.65c-8.85,1.07-18.13-8.78-25.03-14.74-64.91-56.07-127.43-121.12-190.85-179.62-8.59-7.92-21.17-20.83-29.56-27.26-2.29-1.75-2.87-4.38-6.83-3.39v225.01h-15.91v-288.65l28.53,2.15,208.97,193.31,12.49,4.55Z"/>
  <path d="M1611.36,650.76h-60.23l-47.64-97.9-108.07,1.28-45.79,96.25-26.91.35,45.44-96.59-24.97-2.24,4.88-9.88c5.12-3.23,23.13,4.3,28.02-4.94l82.75-173.57c2.2-2.91,18.41-2.84,20.5,2.19l132.01,285.05ZM1500,541.66l-47.75-106.82-49.97,106.82h97.73Z"/>
  <polygon points="506.82 362.1 506.82 373.47 352.27 373.47 352.27 487.11 454.55 487.11 454.55 498.48 352.27 498.48 352.27 639.39 506.82 639.39 506.82 650.76 290.91 650.76 290.91 362.1 506.82 362.1"/>
  <path d="M802.27,362.1v207.97c0,5.04,9.93,26.76,13.2,32.26,34.33,57.75,128.52,58.66,162.24,0,3.13-5.45,13.2-29.77,13.2-34.53v-205.69h15.91v201.15c0,11.22-10.09,37.28-16.31,47.33-36.58,59.08-153.99,61.3-204.17,20.89-15.25-12.28-36.34-43.96-36.34-63.67v-205.69h52.27Z"/>
  <g>
    <path d="M853.41,55.32l34.06,42.08c50.51,44.74,113.67,77.17,181.82,82.96,5.02,36.24,2.25,73.14-4.62,108.95-49.88-2.67-104.01,3.93-153.4.21-20.99-1.58-39.33-13.77-49.76-32.06-1.46-2.55-8.1-17.92-8.1-19.17V55.32Z"/>
    <path d="M991.57,1.27c32.8,42.02,60.08,89.84,70.9,142.69-49.12-18.65-97.77-42.29-137.54-77.22-6.77-5.95-50.17-48.93-46.38-54.39,33.57-20.21,75.62-9.03,113.01-11.08Z"/>
    <path d="M1142.05,164.42l-42.89-9.39c-.83-55.47-16.71-108.68-48.02-154.25h39.77c17.85,0,51.14,35.22,51.14,53.41v110.23Z"/>
    <path d="M1142.05,184.87v51.14c0,3.57-9.09,22.99-11.74,26.9-9.91,14.6-29.4,26.44-47.34,26.5,8.85-34.03,16.34-69.09,15.9-104.54h43.18Z"/>
  </g>
  <path d="M1950,380.29c8.12.63,26.19-3.73,27.33,8.05,1.66,5.59-6.01,10.73-6.52,13.94-.65,4.09,7.82,8.98,6.46,14.36-11.18,2.67-8.27-12.13-17.02-13.65-7.03-1.35-1.75,12.07-3.43,13.67h-6.81v-36.38ZM1956.82,396.21c18.58,2.56,18.86-13.86,0-11.39v11.39Z"/>
</svg>