<svg width="101" height="41" viewBox="0 0 101 41" fill="none" xmlns="http://www.w3.org/2000/svg">
<path d="M100.069 31.1948C99.7843 31.4685 99.4442 31.6068 99.0488 31.6068C98.6534 31.6068 98.294 31.4657 98.012 31.1865C97.7299 30.9045 97.5889 30.5588 97.5889 30.1496C97.5889 29.7404 97.741 29.3699 98.0451 29.0879C98.3299 28.8252 98.6645 28.6925 99.0488 28.6925C99.4332 28.6925 99.7954 28.8335 100.08 29.1183C100.365 29.4031 100.509 29.7459 100.509 30.1496C100.509 30.5533 100.362 30.9128 100.072 31.1975M98.1945 29.3063C97.9622 29.5441 97.8461 29.8261 97.8461 30.1496C97.8461 30.4731 97.965 30.7745 98.2 31.0095C98.435 31.2446 98.7198 31.3634 99.0516 31.3634C99.3834 31.3634 99.6654 31.2445 99.9004 31.0068C100.135 30.769 100.252 30.4814 100.252 30.1469C100.252 29.8123 100.135 29.5413 99.9032 29.3035C99.6654 29.0602 99.3834 28.9386 99.0516 28.9386C98.7198 28.9386 98.4295 29.0602 98.1945 29.3035M98.4129 30.9598V29.3422C98.5124 29.3422 98.6645 29.3422 98.8636 29.3422C99.0627 29.3422 99.176 29.3422 99.1981 29.345C99.3253 29.3533 99.4332 29.381 99.5161 29.428C99.6599 29.5081 99.7318 29.6353 99.7318 29.8151C99.7318 29.9505 99.6931 30.0501 99.6184 30.1081C99.541 30.169 99.4497 30.2049 99.3391 30.216C99.4415 30.2381 99.5161 30.2685 99.5686 30.31C99.6627 30.3874 99.7124 30.5063 99.7124 30.6722V30.816C99.7124 30.8326 99.7124 30.8464 99.7152 30.863C99.7152 30.8796 99.7207 30.8962 99.7262 30.91L99.7401 30.9542H99.3364C99.3226 30.9017 99.3143 30.8298 99.3087 30.7303C99.3032 30.6335 99.2949 30.5671 99.2811 30.5312C99.259 30.4731 99.2203 30.4344 99.1622 30.4123C99.1318 30.3985 99.082 30.3902 99.0184 30.3874L98.9244 30.3819H98.8359V30.9542H98.4129V30.9598ZM99.1843 29.663C99.1262 29.6409 99.0433 29.6298 98.9382 29.6298H98.8359V30.0998H98.9991C99.0986 30.0998 99.176 30.0805 99.2313 30.0418C99.2866 30.0031 99.3143 29.9395 99.3143 29.851C99.3143 29.7625 99.27 29.7017 99.1843 29.6657" fill="#A0125D"/>
<path d="M2.04332 40.3193C1.44055 40.1479 0.951153 39.9046 0.569586 39.5866C0.190784 39.2714 0 38.9064 0 38.5V36.6778H0.306913C0.500462 37.8115 0.873734 38.6327 1.43226 39.1387C1.98802 39.6447 2.75392 39.8963 3.72996 39.8963C4.34378 39.8963 4.86913 39.7442 5.306 39.4373C5.74287 39.1304 5.9613 38.7046 5.9613 38.1599C5.9613 37.6843 5.81475 37.2695 5.5189 36.9184C5.22305 36.5672 4.74747 36.1967 4.08941 35.8124L1.99355 34.5709C1.26636 34.1396 0.75484 33.7027 0.453457 33.2603C0.149309 32.8124 0 32.2732 0 31.6373C0 30.7635 0.304148 30.0612 0.909679 29.5359C1.51797 29.0078 2.31429 28.7451 3.30139 28.7451C3.87927 28.7451 4.45438 28.8281 5.0212 28.9912C5.58803 29.1571 6.05531 29.3949 6.42582 29.7073C6.79632 30.0198 6.97881 30.3792 6.97881 30.7884V32.6106H6.6719C6.47835 31.4741 6.11337 30.6612 5.5742 30.1663C5.03503 29.6714 4.27743 29.4253 3.30139 29.4253C2.77881 29.4253 2.31982 29.5857 1.92166 29.9036C1.5235 30.2216 1.32443 30.6364 1.32443 31.1451C1.32443 31.6096 1.4682 31.9967 1.75853 32.3036C2.04885 32.6106 2.53272 32.9672 3.21567 33.3764L5.30876 34.6179C6.08019 35.0824 6.62489 35.5138 6.94287 35.9119C7.26084 36.3101 7.41844 36.8133 7.41844 37.4272C7.41844 38.3811 7.10047 39.1442 6.46452 39.7166C5.82858 40.2889 4.96591 40.5765 3.8765 40.5765C3.25162 40.5765 2.64056 40.4907 2.03779 40.3221" fill="#A0125D"/>
<path d="M13.9429 39.8601C13.141 39.3486 12.5272 38.6545 12.0959 37.7753C11.6645 36.896 11.4489 35.9172 11.4489 34.8389C11.4489 33.7605 11.6839 32.6988 12.1567 31.7587C12.6267 30.8158 13.2682 30.072 14.0811 29.5273C14.8913 28.9826 15.7761 28.7089 16.73 28.7089C17.6839 28.7089 18.436 28.8361 19.1217 29.0932C19.8074 29.3476 20.3162 29.6739 20.6452 30.072C20.8387 30.3098 20.9576 30.625 21.0046 31.0177C21.0489 31.4103 21.0738 31.9467 21.0738 32.6269H20.7337C20.518 31.5264 20.1198 30.7108 19.542 30.1826C18.9641 29.6545 18.1982 29.3919 17.2443 29.3919C16.0194 29.3919 15.0295 29.8232 14.283 30.6859C13.5337 31.5485 13.1576 32.9338 13.1576 34.8389C13.1576 35.7347 13.3014 36.5697 13.5917 37.3412C13.882 38.1126 14.3327 38.7403 14.9466 39.2214C15.5604 39.7052 16.3263 39.9458 17.2443 39.9458C18.0738 39.9458 18.7954 39.7467 19.4148 39.3486C20.0341 38.9532 20.5871 38.3559 21.0765 37.5596L21.4166 37.8168C20.894 38.837 20.2498 39.5615 19.4839 39.9873C18.718 40.4131 17.8 40.626 16.7327 40.626C15.6655 40.626 14.7502 40.3716 13.9484 39.8601" fill="#A0125D"/>
<path d="M28.0257 39.9046C27.3897 39.5368 26.9391 38.9894 26.6708 38.2622C26.4054 37.535 26.2699 36.5921 26.2699 35.4364V31.0953C26.2699 30.5147 26.1897 30.0861 26.0321 29.8096C25.8718 29.5304 25.5538 29.3921 25.0782 29.3921H24.7381V29.052H26.2699C26.6902 29.052 27.0054 29.1073 27.2156 29.2152C27.4257 29.323 27.575 29.5193 27.6662 29.8013C27.7575 30.0861 27.8017 30.5175 27.8017 31.0953V35.9479C27.8017 37.2087 28.034 38.1626 28.4985 38.8069C28.963 39.4539 29.7372 39.7774 30.8156 39.7774C31.6782 39.7774 32.3612 39.6253 32.8672 39.3184C33.3732 39.0115 33.7326 38.547 33.9483 37.9221C34.1639 37.2972 34.2718 36.4677 34.2718 35.4364V29.052H34.952V35.4364C34.952 36.617 34.8275 37.5682 34.5759 38.2871C34.3271 39.0087 33.8875 39.5507 33.257 39.9129C32.6266 40.2778 31.7446 40.4576 30.6082 40.4576C29.4718 40.4576 28.6561 40.2723 28.0202 39.9046" fill="#A0125D"/>
<path d="M40.6399 31.0925C40.6399 30.5118 40.5597 30.086 40.4021 29.8067C40.2445 29.5275 39.9265 29.3892 39.4481 29.3892H39.1081V29.0491H40.6399C41.0601 29.0491 41.3753 29.1044 41.5855 29.2123C41.7956 29.3201 41.9449 29.5164 42.0362 29.7985C42.1274 30.0832 42.1717 30.5146 42.1717 31.0925V39.6058H48.2159V40.286H40.6399V31.0925Z" fill="#A0125D"/>
<path d="M52.373 31.0925C52.373 30.5118 52.2928 30.0832 52.1352 29.8067C51.9748 29.5275 51.6596 29.3892 51.1813 29.3892H50.8412V29.0491H55.2679C56.3573 29.0491 57.3389 29.2814 58.2154 29.7487C59.0891 30.2132 59.526 31.1173 59.526 32.4556C59.526 33.3404 59.2993 34.0206 58.8458 34.4989C58.3923 34.9745 57.8836 35.2925 57.3223 35.4528C56.761 35.6104 56.2467 35.6906 55.7794 35.6906H53.9076V40.2888H52.3757V31.0952L52.373 31.0925ZM55.1822 35.0934C55.5444 35.0934 55.9315 34.9994 56.3407 34.8114C56.7499 34.6233 57.0983 34.3275 57.3887 33.9183C57.679 33.5091 57.8228 32.9948 57.8228 32.3699C57.8228 31.745 57.679 31.2279 57.3887 30.8215C57.0983 30.4123 56.7499 30.1137 56.3407 29.9284C55.9315 29.7404 55.5472 29.6464 55.1822 29.6464C54.784 29.6464 54.3582 29.7044 53.9048 29.815V35.0934H55.1822Z" fill="#A0125D"/>
<path d="M66.8808 29.7294H65.349C63.9306 29.7294 63.22 30.382 63.22 31.687H62.8799V30.4096C62.8799 29.5027 63.361 29.0465 64.326 29.0465H72.2421V29.7267H68.4126V40.2834H66.8808V29.7267V29.7294Z" fill="#A0125D"/>
<path d="M82.7228 39.921C82.2749 39.5644 81.7772 38.9201 81.2325 37.9883L79.5293 35.0934H78.3376V40.286H76.8057V31.0925C76.8057 30.5118 76.7256 30.0832 76.568 29.8067C76.4076 29.5275 76.0924 29.3892 75.614 29.3892H75.2739V29.0491H79.7007C80.768 29.0491 81.744 29.262 82.6288 29.6879C83.5136 30.1137 83.956 30.9155 83.956 32.0962C83.956 32.9837 83.6988 33.6445 83.1818 34.0786C82.6647 34.5155 82.015 34.8252 81.2325 35.0077L83.0214 37.9883C83.4417 38.6906 83.8177 39.1828 84.1523 39.4621C84.4869 39.7413 84.8767 39.9017 85.3191 39.9487V40.2888C85.2168 40.333 85.0675 40.3745 84.8767 40.4077C84.6832 40.4409 84.4869 40.4575 84.2795 40.4575C83.6906 40.4575 83.1707 40.2777 82.7228 39.921ZM79.5652 34.4989C79.9385 34.4989 80.3366 34.4132 80.7569 34.2445C81.1772 34.0731 81.5311 33.8077 81.8214 33.4455C82.1117 33.0805 82.2555 32.627 82.2555 32.0823C82.2555 31.5376 82.1062 31.0842 81.8131 30.7192C81.5173 30.357 81.1634 30.086 80.7486 29.9118C80.3339 29.7349 79.9412 29.6491 79.5652 29.6491C79.1892 29.6491 78.7938 29.7072 78.3376 29.8178V34.5017H79.5652V34.4989Z" fill="#A0125D"/>
<path d="M96.6579 39.9212C96.1243 39.6198 95.6985 39.0336 95.3805 38.1599L94.9547 37.0539H90.1879L88.8248 40.2889H88.0589L92.8257 29.052H93.3372L97.0838 38.1626C97.3658 38.8207 97.634 39.2714 97.8828 39.5175C98.1317 39.7608 98.4911 39.9073 98.9557 39.9516V40.2917C98.751 40.3497 98.5243 40.3774 98.2755 40.3774C97.7308 40.3774 97.1916 40.2281 96.6579 39.9267M94.6146 36.3765L92.5713 31.4382L90.4423 36.3765H94.6146Z" fill="#A0125D"/>
<path d="M50.4108 16.1423C46.1444 16.5902 42.3094 13.4851 41.8587 9.21877C41.4107 4.9524 44.5158 1.11738 48.7822 0.66945C53.0513 0.218758 56.8863 3.32383 57.3343 7.5902C57.3619 7.8501 57.3757 8.11554 57.3785 8.37822C57.3785 8.47499 57.3066 8.55241 57.2126 8.56347C57.2098 8.56347 57.2043 8.56347 57.2015 8.56347C57.102 8.56623 57.0163 8.49158 57.0108 8.39204L57.0052 8.33398C57.0025 8.28697 56.9997 8.2372 56.9942 8.18743C56.6043 4.47959 53.3057 1.88881 49.4845 2.28973C45.7131 2.68512 43.1693 5.8289 43.5674 9.59757C43.7554 11.3865 44.5766 13.0013 45.879 14.1404C47.1896 15.2879 48.8817 15.8547 50.6403 15.7358C50.7398 15.7275 50.8255 15.8022 50.8366 15.9017C50.8476 16.0013 50.7757 16.0897 50.679 16.1036L50.6375 16.1091C50.5628 16.1202 50.4882 16.1312 50.4108 16.1368" fill="#A0125D"/>
<path d="M50.138 23.6879C45.8579 23.9865 42.1334 20.7487 41.8348 16.4685C41.8154 16.2058 41.8127 15.9432 41.8182 15.6805C41.821 15.5865 41.8956 15.5091 41.9896 15.5008C41.9952 15.5008 41.9979 15.5008 42.0007 15.5008C42.1002 15.5008 42.1832 15.5782 42.186 15.6777V15.7358C42.1887 15.7856 42.1915 15.8326 42.1943 15.8823C42.4542 19.6012 45.6588 22.3054 49.491 22.0372C53.2735 21.7718 55.9251 18.722 55.6597 14.9395C55.5353 13.145 54.7694 11.5026 53.5058 10.3164C52.2339 9.12473 50.5638 8.49984 48.8026 8.55791C48.703 8.56067 48.6173 8.48602 48.6118 8.38648C48.6035 8.28694 48.6781 8.20122 48.7777 8.19016H48.8164C48.8938 8.1791 48.9685 8.17081 49.0459 8.16528C53.3261 7.86666 57.0505 11.1045 57.3491 15.3846C57.6477 19.6648 54.4099 23.3893 50.1297 23.6879" fill="#A0125D"/>
</svg>
