<svg xmlns="http://www.w3.org/2000/svg" xmlns:xlink="http://www.w3.org/1999/xlink" width="2000" zoomAndPan="magnify" viewBox="0 0 1500 749.999995" height="1000" preserveAspectRatio="xMidYMid meet" version="1.0"><defs><clipPath id="6d5a281cd2"><path d="M 0 12.328125 L 107.449219 12.328125 L 107.449219 197.425781 L 0 197.425781 Z M 0 12.328125 " clip-rule="nonzero"/></clipPath><clipPath id="0e48e37dee"><path d="M 52.5 197.289062 C 34.339844 197.289062 16.433594 192.625 0 179.128906 L 13.980469 160.25 C 23.546875 168.839844 39.007812 173.492188 51.273438 173.492188 C 69.417969 173.492188 81.941406 165.402344 81.941406 148.464844 C 81.941406 133.257812 67.957031 124.917969 52.011719 116.828125 C 26.5 103.835938 0.488281 92.539062 0.488281 58.453125 C 0.488281 31.949219 20.109375 12.328125 52.25 12.328125 C 70.15625 12.328125 86.589844 17.734375 100.570312 27.535156 L 87.328125 47.644531 C 76.285156 39.554688 66.96875 36.363281 51.996094 36.363281 C 38.015625 36.363281 26.234375 43.480469 26.234375 56.976562 C 26.234375 76.359375 43.40625 82.972656 65.492188 94.019531 C 85.851562 104.070312 107.4375 117.078125 107.4375 147.003906 C 107.4375 179.144531 82.410156 197.289062 52.484375 197.289062 " clip-rule="nonzero"/></clipPath><clipPath id="a84d89d4b2"><path d="M 0 0.328125 L 107.449219 0.328125 L 107.449219 185.359375 L 0 185.359375 Z M 0 0.328125 " clip-rule="nonzero"/></clipPath><clipPath id="5f8efe8b26"><path d="M 52.5 185.289062 C 34.339844 185.289062 16.433594 180.625 0 167.128906 L 13.980469 148.25 C 23.546875 156.839844 39.007812 161.492188 51.273438 161.492188 C 69.417969 161.492188 81.941406 153.402344 81.941406 136.464844 C 81.941406 121.257812 67.957031 112.917969 52.011719 104.828125 C 26.5 91.835938 0.488281 80.539062 0.488281 46.453125 C 0.488281 19.949219 20.109375 0.328125 52.25 0.328125 C 70.15625 0.328125 86.589844 5.734375 100.570312 15.535156 L 87.328125 35.644531 C 76.285156 27.554688 66.96875 24.363281 51.996094 24.363281 C 38.015625 24.363281 26.234375 31.480469 26.234375 44.976562 C 26.234375 64.359375 43.40625 70.972656 65.492188 82.019531 C 85.851562 92.070312 107.4375 105.078125 107.4375 135.003906 C 107.4375 167.144531 82.410156 185.289062 52.484375 185.289062 " clip-rule="nonzero"/></clipPath><clipPath id="ab863c1bc6"><rect x="0" width="108" y="0" height="186"/></clipPath><clipPath id="bd0db3bf7f"><path d="M 158.226562 15.269531 L 307 15.269531 L 307 194.414062 L 158.226562 194.414062 Z M 158.226562 15.269531 " clip-rule="nonzero"/></clipPath><clipPath id="807773d3b5"><path d="M 244.34375 111.191406 L 244.34375 194.355469 L 219.808594 194.355469 L 219.808594 111.191406 L 158.226562 15.269531 L 186.691406 15.269531 L 229.863281 82.238281 C 230.851562 83.699219 232.5625 87.390625 232.5625 87.390625 C 232.5625 87.390625 234.277344 83.949219 235.5 81.988281 L 278.6875 15.269531 L 306.648438 15.269531 Z M 244.34375 111.191406 " clip-rule="nonzero"/></clipPath><clipPath id="933c17fd25"><path d="M 0.226562 0.269531 L 148.71875 0.269531 L 148.71875 179.414062 L 0.226562 179.414062 Z M 0.226562 0.269531 " clip-rule="nonzero"/></clipPath><clipPath id="8f2db6ffdf"><path d="M 86.34375 96.191406 L 86.34375 179.355469 L 61.808594 179.355469 L 61.808594 96.191406 L 0.226562 0.269531 L 28.691406 0.269531 L 71.863281 67.238281 C 72.851562 68.699219 74.5625 72.390625 74.5625 72.390625 C 74.5625 72.390625 76.277344 68.949219 77.5 66.988281 L 120.6875 0.269531 L 148.648438 0.269531 Z M 86.34375 96.191406 " clip-rule="nonzero"/></clipPath><clipPath id="1768e0459b"><rect x="0" width="149" y="0" height="180"/></clipPath><clipPath id="ab35eea3f1"><path d="M 366.753906 15.269531 L 391.273438 15.269531 L 391.273438 171.292969 L 366.753906 171.292969 Z M 366.753906 171.292969 L 459.234375 171.292969 L 459.234375 194.355469 L 366.753906 194.355469 Z M 366.753906 171.292969 " clip-rule="nonzero"/></clipPath><clipPath id="e101b85257"><path d="M 0.753906 0.269531 L 25.273438 0.269531 L 25.273438 156.292969 L 0.753906 156.292969 Z M 0.753906 156.292969 L 93.234375 156.292969 L 93.234375 179.355469 L 0.753906 179.355469 Z M 0.753906 156.292969 " clip-rule="nonzero"/></clipPath><clipPath id="0ed598d189"><rect x="0" width="94" y="0" height="180"/></clipPath><clipPath id="c1e4a3ad26"><path d="M 521.054688 15.269531 L 609.375 15.269531 L 609.375 38.328125 L 521.054688 38.328125 Z M 521.054688 38.328125 L 545.59375 38.328125 L 545.59375 95.496094 L 521.054688 95.496094 Z M 521.054688 95.496094 L 605.699219 95.496094 L 605.699219 118.542969 L 521.054688 118.542969 Z M 521.054688 118.542969 L 545.59375 118.542969 L 545.59375 194.355469 L 521.054688 194.355469 Z M 521.054688 118.542969 " clip-rule="nonzero"/></clipPath><clipPath id="45f390384f"><path d="M 0.0546875 0.269531 L 88.375 0.269531 L 88.375 23.328125 L 0.0546875 23.328125 Z M 0.0546875 23.328125 L 24.59375 23.328125 L 24.59375 80.496094 L 0.0546875 80.496094 Z M 0.0546875 80.496094 L 84.699219 80.496094 L 84.699219 103.542969 L 0.0546875 103.542969 Z M 0.0546875 103.542969 L 24.59375 103.542969 L 24.59375 179.355469 L 0.0546875 179.355469 Z M 0.0546875 103.542969 " clip-rule="nonzero"/></clipPath><clipPath id="62253dc803"><rect x="0" width="89" y="0" height="180"/></clipPath><clipPath id="6aa6773efa"><path d="M 676.589844 15.269531 L 701.125 15.269531 L 701.125 194.355469 L 676.589844 194.355469 Z M 676.589844 15.269531 " clip-rule="nonzero"/></clipPath><clipPath id="10a71e4ed7"><path d="M 0.589844 0.269531 L 25.125 0.269531 L 25.125 179.355469 L 0.589844 179.355469 Z M 0.589844 0.269531 " clip-rule="nonzero"/></clipPath><clipPath id="801dc41a6c"><rect x="0" width="26" y="0" height="180"/></clipPath><clipPath id="a23b770d49"><path d="M 774.71875 15.269531 L 903.015625 15.269531 L 903.015625 194.6875 L 774.71875 194.6875 Z M 774.71875 15.269531 " clip-rule="nonzero"/></clipPath><clipPath id="b513a83a6e"><path d="M 828.191406 38.328125 L 799.253906 38.328125 L 799.253906 99.910156 L 827.703125 99.910156 C 849.777344 99.910156 862.53125 86.179688 862.53125 67.03125 C 862.53125 54.761719 851.488281 38.328125 828.191406 38.328125 M 871.613281 194.355469 L 799.253906 110.703125 L 799.253906 194.355469 L 774.71875 194.355469 L 774.71875 15.269531 L 832.605469 15.269531 C 865.972656 15.269531 888.058594 39.066406 888.058594 68.003906 C 888.058594 96.707031 863.773438 119.28125 837.035156 119.28125 L 903.015625 194.355469 Z M 871.613281 194.355469 " clip-rule="nonzero"/></clipPath><clipPath id="7faa906e2b"><path d="M 0.71875 0.269531 L 129.015625 0.269531 L 129.015625 179.480469 L 0.71875 179.480469 Z M 0.71875 0.269531 " clip-rule="nonzero"/></clipPath><clipPath id="e7d12b5446"><path d="M 54.191406 23.328125 L 25.253906 23.328125 L 25.253906 84.910156 L 53.703125 84.910156 C 75.777344 84.910156 88.53125 71.179688 88.53125 52.03125 C 88.53125 39.761719 77.488281 23.328125 54.191406 23.328125 M 97.613281 179.355469 L 25.253906 95.703125 L 25.253906 179.355469 L 0.71875 179.355469 L 0.71875 0.269531 L 58.605469 0.269531 C 91.972656 0.269531 114.058594 24.066406 114.058594 53.003906 C 114.058594 81.707031 89.773438 104.28125 63.035156 104.28125 L 129.015625 179.355469 Z M 97.613281 179.355469 " clip-rule="nonzero"/></clipPath><clipPath id="5aa7fb4035"><rect x="0" width="130" y="0" height="180"/></clipPath><clipPath id="603cee09e4"><path d="M 961.160156 15.269531 L 1136.808594 15.269531 L 1136.808594 195 L 961.160156 195 Z M 961.160156 15.269531 " clip-rule="nonzero"/></clipPath><clipPath id="8f4a17d49d"><path d="M 1112.285156 194.355469 L 1112.285156 62.617188 C 1112.285156 59.679688 1112.773438 56.238281 1112.773438 56.003906 C 1112.519531 56.253906 1111.296875 58.707031 1110.320312 59.929688 L 1054.128906 135.730469 L 1044.328125 135.730469 L 987.664062 61.878906 C 986.6875 60.90625 985.449219 58.691406 985.210938 58.203125 C 985.210938 58.691406 985.699219 61.644531 985.699219 64.582031 L 985.699219 194.355469 L 961.160156 194.355469 L 961.160156 15.269531 L 982.007812 15.269531 L 1049.480469 102.847656 L 1114.972656 15.269531 L 1136.808594 15.269531 L 1136.808594 194.355469 Z M 1112.285156 194.355469 " clip-rule="nonzero"/></clipPath><clipPath id="67f2ee1bc4"><path d="M 0.160156 0.269531 L 175.808594 0.269531 L 175.808594 179.480469 L 0.160156 179.480469 Z M 0.160156 0.269531 " clip-rule="nonzero"/></clipPath><clipPath id="00ba6875c1"><path d="M 151.285156 179.355469 L 151.285156 47.617188 C 151.285156 44.679688 151.773438 41.238281 151.773438 41.003906 C 151.519531 41.253906 150.296875 43.707031 149.320312 44.929688 L 93.128906 120.730469 L 83.328125 120.730469 L 26.664062 46.878906 C 25.6875 45.90625 24.449219 43.691406 24.210938 43.203125 C 24.210938 43.691406 24.699219 46.644531 24.699219 49.582031 L 24.699219 179.355469 L 0.160156 179.355469 L 0.160156 0.269531 L 21.007812 0.269531 L 88.480469 87.847656 L 153.972656 0.269531 L 175.808594 0.269531 L 175.808594 179.355469 Z M 151.285156 179.355469 " clip-rule="nonzero"/></clipPath><clipPath id="53d2f5567d"><rect x="0" width="176" y="0" height="180"/></clipPath><clipPath id="7208b32d45"><path d="M 1184.363281 0.78125 L 1500 0.78125 L 1500 225.21875 L 1184.363281 225.21875 Z M 1184.363281 0.78125 " clip-rule="nonzero"/></clipPath><clipPath id="b7774b981f"><path d="M 1356.726562 82.058594 L 1409.007812 82.058594 L 1480.925781 10.140625 L 1391.601562 10.140625 L 1337.324219 64.417969 L 1273.703125 0.78125 L 1184.363281 0.78125 L 1287.355469 103.769531 L 1193.367188 197.757812 L 1282.6875 197.757812 L 1332.957031 147.503906 L 1410.671875 225.21875 L 1499.996094 225.21875 Z M 1356.726562 82.058594 " clip-rule="nonzero"/></clipPath><clipPath id="7da36ca83e"><path d="M 0.363281 0.78125 L 316 0.78125 L 316 225.21875 L 0.363281 225.21875 Z M 0.363281 0.78125 " clip-rule="nonzero"/></clipPath><clipPath id="6414d5f8fb"><path d="M 172.726562 82.058594 L 225.007812 82.058594 L 296.925781 10.140625 L 207.601562 10.140625 L 153.324219 64.417969 L 89.703125 0.78125 L 0.363281 0.78125 L 103.355469 103.769531 L 9.367188 197.757812 L 98.6875 197.757812 L 148.957031 147.503906 L 226.671875 225.21875 L 315.996094 225.21875 Z M 172.726562 82.058594 " clip-rule="nonzero"/></clipPath><clipPath id="50f224382f"><rect x="0" width="316" y="0" height="226"/></clipPath><clipPath id="a8c5c8a9b5"><rect x="0" width="1500" y="0" height="226"/></clipPath></defs><g transform="matrix(1, 0, 0, 1, 0, 262)"><g clip-path="url(#a8c5c8a9b5)"><g clip-path="url(#6d5a281cd2)"><g clip-path="url(#0e48e37dee)"><g transform="matrix(1, 0, 0, 1, 0, 12)"><g clip-path="url(#ab863c1bc6)"><g clip-path="url(#a84d89d4b2)"><g clip-path="url(#5f8efe8b26)"><path fill="#000000" d="M 0 0.328125 L 107.449219 0.328125 L 107.449219 185.425781 L 0 185.425781 Z M 0 0.328125 " fill-opacity="1" fill-rule="nonzero"/></g></g></g></g></g></g><g clip-path="url(#bd0db3bf7f)"><g clip-path="url(#807773d3b5)"><g transform="matrix(1, 0, 0, 1, 158, 15)"><g clip-path="url(#1768e0459b)"><g clip-path="url(#933c17fd25)"><g clip-path="url(#8f2db6ffdf)"><path fill="#000000" d="M 0.226562 0.269531 L 148.644531 0.269531 L 148.644531 179.414062 L 0.226562 179.414062 Z M 0.226562 0.269531 " fill-opacity="1" fill-rule="nonzero"/></g></g></g></g></g></g><g clip-path="url(#ab35eea3f1)"><g transform="matrix(1, 0, 0, 1, 366, 15)"><g clip-path="url(#0ed598d189)"><g clip-path="url(#e101b85257)"><path fill="#000000" d="M 0.753906 0.269531 L 93.238281 0.269531 L 93.238281 179.464844 L 0.753906 179.464844 Z M 0.753906 0.269531 " fill-opacity="1" fill-rule="nonzero"/></g></g></g></g><g clip-path="url(#c1e4a3ad26)"><g transform="matrix(1, 0, 0, 1, 521, 15)"><g clip-path="url(#62253dc803)"><g clip-path="url(#45f390384f)"><path fill="#000000" d="M 0.0546875 0.269531 L 88.371094 0.269531 L 88.371094 179.3125 L 0.0546875 179.3125 Z M 0.0546875 0.269531 " fill-opacity="1" fill-rule="nonzero"/></g></g></g></g><g clip-path="url(#6aa6773efa)"><g transform="matrix(1, 0, 0, 1, 676, 15)"><g clip-path="url(#801dc41a6c)"><g clip-path="url(#10a71e4ed7)"><path fill="#000000" d="M 0.589844 0.269531 L 25.121094 0.269531 L 25.121094 179.378906 L 0.589844 179.378906 Z M 0.589844 0.269531 " fill-opacity="1" fill-rule="nonzero"/></g></g></g></g><g clip-path="url(#a23b770d49)"><g clip-path="url(#b513a83a6e)"><g transform="matrix(1, 0, 0, 1, 774, 15)"><g clip-path="url(#5aa7fb4035)"><g clip-path="url(#7faa906e2b)"><g clip-path="url(#e7d12b5446)"><path fill="#000000" d="M 0.71875 0.269531 L 129.015625 0.269531 L 129.015625 179.1875 L 0.71875 179.1875 Z M 0.71875 0.269531 " fill-opacity="1" fill-rule="nonzero"/></g></g></g></g></g></g><g clip-path="url(#603cee09e4)"><g clip-path="url(#8f4a17d49d)"><g transform="matrix(1, 0, 0, 1, 961, 15)"><g clip-path="url(#53d2f5567d)"><g clip-path="url(#67f2ee1bc4)"><g clip-path="url(#00ba6875c1)"><path fill="#000000" d="M 0.160156 0.269531 L 175.808594 0.269531 L 175.808594 179.347656 L 0.160156 179.347656 Z M 0.160156 0.269531 " fill-opacity="1" fill-rule="nonzero"/></g></g></g></g></g></g><g clip-path="url(#7208b32d45)"><g clip-path="url(#b7774b981f)"><g transform="matrix(1, 0, 0, 1, 1184, -0.000000000000113687)"><g clip-path="url(#50f224382f)"><g clip-path="url(#7da36ca83e)"><g clip-path="url(#6414d5f8fb)"><path fill="#000000" d="M 0.363281 0.78125 L 315.984375 0.78125 L 315.984375 225.21875 L 0.363281 225.21875 Z M 0.363281 0.78125 " fill-opacity="1" fill-rule="nonzero"/></g></g></g></g></g></g></g></g></svg>