<?xml version="1.0" encoding="UTF-8"?>
<svg id="Layer_1" data-name="Layer 1" xmlns="http://www.w3.org/2000/svg" xmlns:xlink="http://www.w3.org/1999/xlink" viewBox="0 0 2000 301.33">
  <defs>
    <style>
      .cls-1 {
        fill: none;
      }

      .cls-2 {
        clip-path: url(#clippath-17);
      }

      .cls-3 {
        clip-path: url(#clippath-19);
      }

      .cls-4 {
        clip-path: url(#clippath-11);
      }

      .cls-5 {
        clip-path: url(#clippath-16);
      }

      .cls-6 {
        clip-path: url(#clippath-18);
      }

      .cls-7 {
        clip-path: url(#clippath-10);
      }

      .cls-8 {
        clip-path: url(#clippath-15);
      }

      .cls-9 {
        clip-path: url(#clippath-13);
      }

      .cls-10 {
        clip-path: url(#clippath-14);
      }

      .cls-11 {
        clip-path: url(#clippath-12);
      }

      .cls-12 {
        clip-path: url(#clippath-31);
      }

      .cls-13 {
        clip-path: url(#clippath-32);
      }

      .cls-14 {
        clip-path: url(#clippath-33);
      }

      .cls-15 {
        clip-path: url(#clippath-34);
      }

      .cls-16 {
        clip-path: url(#clippath-30);
      }

      .cls-17 {
        clip-path: url(#clippath-27);
      }

      .cls-18 {
        clip-path: url(#clippath-29);
      }

      .cls-19 {
        clip-path: url(#clippath-26);
      }

      .cls-20 {
        clip-path: url(#clippath-28);
      }

      .cls-21 {
        clip-path: url(#clippath-20);
      }

      .cls-22 {
        clip-path: url(#clippath-21);
      }

      .cls-23 {
        clip-path: url(#clippath-22);
      }

      .cls-24 {
        clip-path: url(#clippath-23);
      }

      .cls-25 {
        clip-path: url(#clippath-24);
      }

      .cls-26 {
        clip-path: url(#clippath-25);
      }

      .cls-27 {
        clip-path: url(#clippath-1);
      }

      .cls-28 {
        clip-path: url(#clippath-3);
      }

      .cls-29 {
        clip-path: url(#clippath-4);
      }

      .cls-30 {
        clip-path: url(#clippath-2);
      }

      .cls-31 {
        clip-path: url(#clippath-7);
      }

      .cls-32 {
        clip-path: url(#clippath-6);
      }

      .cls-33 {
        clip-path: url(#clippath-9);
      }

      .cls-34 {
        clip-path: url(#clippath-8);
      }

      .cls-35 {
        clip-path: url(#clippath-5);
      }

      .cls-36 {
        clip-path: url(#clippath);
      }
    </style>
    <clipPath id="clippath">
      <rect class="cls-1" width="2000" height="301.33"/>
    </clipPath>
    <clipPath id="clippath-1">
      <rect class="cls-1" y="16.44" width="143.27" height="246.8"/>
    </clipPath>
    <clipPath id="clippath-2">
      <path class="cls-1" d="M70,263.05c-24.21,0-48.09-6.22-70-24.21l18.64-25.17c12.76,11.45,33.37,17.66,49.72,17.66,24.19,0,40.89-10.79,40.89-33.37,0-20.28-18.65-31.4-39.91-42.18C35.33,138.45.65,123.39.65,77.94.65,42.6,26.81,16.44,69.67,16.44c23.88,0,45.79,7.21,64.43,20.28l-17.66,26.81c-14.72-10.79-27.15-15.04-47.11-15.04-18.64,0-34.35,9.49-34.35,27.48,0,25.84,22.9,34.66,52.34,49.39,27.15,13.4,55.93,30.74,55.93,70.65,0,42.85-33.37,67.05-73.27,67.05h.02Z"/>
    </clipPath>
    <clipPath id="clippath-3">
      <rect class="cls-1" y="16" width="144" height="248"/>
    </clipPath>
    <clipPath id="clippath-4">
      <rect class="cls-1" y="16.44" width="143.27" height="246.71"/>
    </clipPath>
    <clipPath id="clippath-5">
      <path class="cls-1" d="M70,263.05c-24.21,0-48.09-6.22-70-24.21l18.64-25.17c12.76,11.45,33.37,17.66,49.72,17.66,24.19,0,40.89-10.79,40.89-33.37,0-20.28-18.65-31.4-39.91-42.18C35.33,138.45.65,123.39.65,77.94.65,42.6,26.81,16.44,69.67,16.44c23.88,0,45.79,7.21,64.43,20.28l-17.66,26.81c-14.72-10.79-27.15-15.04-47.11-15.04-18.64,0-34.35,9.49-34.35,27.48,0,25.84,22.9,34.66,52.34,49.39,27.15,13.4,55.93,30.74,55.93,70.65,0,42.85-33.37,67.05-73.27,67.05h.02Z"/>
    </clipPath>
    <clipPath id="clippath-6">
      <rect class="cls-1" x="210.97" y="20.36" width="198.36" height="238.86"/>
    </clipPath>
    <clipPath id="clippath-7">
      <path class="cls-1" d="M325.79,148.26v110.89h-32.71v-110.89L210.97,20.36h37.95l57.56,89.29c1.32,1.95,3.6,6.87,3.6,6.87,0,0,2.29-4.59,3.92-7.2l57.58-88.96h37.28l-83.07,127.9Z"/>
    </clipPath>
    <clipPath id="clippath-8">
      <rect class="cls-1" x="210.67" y="20" width="198.67" height="240"/>
    </clipPath>
    <clipPath id="clippath-9">
      <rect class="cls-1" x="210.97" y="20.36" width="197.99" height="238.86"/>
    </clipPath>
    <clipPath id="clippath-10">
      <path class="cls-1" d="M325.79,148.26v110.89h-32.71v-110.89L210.97,20.36h37.95l57.56,89.29c1.32,1.95,3.6,6.87,3.6,6.87,0,0,2.29-4.59,3.92-7.2l57.58-88.96h37.28l-83.07,127.9Z"/>
    </clipPath>
    <clipPath id="clippath-11">
      <path class="cls-1" d="M489.01,20.36h32.69v208.03h-32.69V20.36ZM489.01,228.39h123.31v30.75h-123.31v-30.75Z"/>
    </clipPath>
    <clipPath id="clippath-12">
      <rect class="cls-1" x="488" y="20" width="125.33" height="240"/>
    </clipPath>
    <clipPath id="clippath-13">
      <path class="cls-1" d="M489.01,20.36h32.69v208.03h-32.69V20.36ZM489.01,228.39h123.31v30.75h-123.31v-30.75Z"/>
    </clipPath>
    <clipPath id="clippath-14">
      <path class="cls-1" d="M694.74,20.36h117.76v30.74h-117.76v-30.74ZM694.74,51.1h32.72v76.22h-32.72V51.1ZM694.74,127.33h112.86v30.73h-112.86v-30.73ZM694.74,158.06h32.72v101.08h-32.72v-101.08Z"/>
    </clipPath>
    <clipPath id="clippath-15">
      <rect class="cls-1" x="694.67" y="20" width="118.67" height="240"/>
    </clipPath>
    <clipPath id="clippath-16">
      <path class="cls-1" d="M694.74,20.36h117.76v30.74h-117.76v-30.74ZM694.74,51.1h32.72v76.22h-32.72V51.1ZM694.74,127.33h112.86v30.73h-112.86v-30.73ZM694.74,158.06h32.72v101.08h-32.72v-101.08Z"/>
    </clipPath>
    <clipPath id="clippath-17">
      <rect class="cls-1" x="902.12" y="20.36" width="32.71" height="238.78"/>
    </clipPath>
    <clipPath id="clippath-18">
      <rect class="cls-1" x="901.33" y="20" width="34.67" height="240"/>
    </clipPath>
    <clipPath id="clippath-19">
      <rect class="cls-1" x="902.12" y="20.36" width="32.71" height="238.78"/>
    </clipPath>
    <clipPath id="clippath-20">
      <rect class="cls-1" x="1032.96" y="20.36" width="171.06" height="239.22"/>
    </clipPath>
    <clipPath id="clippath-21">
      <path class="cls-1" d="M1104.26,51.1h-38.58v82.11h37.93c29.43,0,46.44-18.31,46.44-43.84,0-16.36-14.72-38.27-45.79-38.27M1162.15,259.14l-96.48-111.54v111.54h-32.71V20.36h77.18c44.49,0,73.94,31.73,73.94,70.31s-32.38,68.37-68.03,68.37l87.97,100.1h-41.87Z"/>
    </clipPath>
    <clipPath id="clippath-22">
      <rect class="cls-1" x="1032" y="20" width="173.33" height="240"/>
    </clipPath>
    <clipPath id="clippath-23">
      <rect class="cls-1" x="1032.96" y="20.36" width="171.06" height="238.95"/>
    </clipPath>
    <clipPath id="clippath-24">
      <path class="cls-1" d="M1104.26,51.1h-38.58v82.11h37.93c29.43,0,46.44-18.31,46.44-43.84,0-16.36-14.72-38.27-45.79-38.27M1162.15,259.14l-96.48-111.54v111.54h-32.71V20.36h77.18c44.49,0,73.94,31.73,73.94,70.31s-32.38,68.37-68.03,68.37l87.97,100.1h-41.87Z"/>
    </clipPath>
    <clipPath id="clippath-25">
      <rect class="cls-1" x="1281.55" y="20.36" width="234.2" height="239.64"/>
    </clipPath>
    <clipPath id="clippath-26">
      <path class="cls-1" d="M1483.05,259.14V83.49c0-3.92.65-8.51.65-8.82-.34.33-1.97,3.6-3.27,5.23l-74.92,101.07h-13.07l-75.55-98.47c-1.3-1.3-2.95-4.25-3.27-4.9,0,.65.65,4.59.65,8.51v173.03h-32.72V20.36h27.8l89.96,116.77,87.32-116.77h29.11v238.78h-32.7Z"/>
    </clipPath>
    <clipPath id="clippath-27">
      <rect class="cls-1" x="1281.33" y="20" width="234.67" height="240"/>
    </clipPath>
    <clipPath id="clippath-28">
      <rect class="cls-1" x="1281.55" y="20.36" width="234.2" height="238.95"/>
    </clipPath>
    <clipPath id="clippath-29">
      <path class="cls-1" d="M1483.05,259.14V83.49c0-3.92.65-8.51.65-8.82-.34.33-1.97,3.6-3.27,5.23l-74.92,101.07h-13.07l-75.55-98.47c-1.3-1.3-2.95-4.25-3.27-4.9,0,.65.65,4.59.65,8.51v173.03h-32.72V20.36h27.8l89.96,116.77,87.32-116.77h29.11v238.78h-32.7Z"/>
    </clipPath>
    <clipPath id="clippath-30">
      <rect class="cls-1" x="1579.15" y="1.04" width="420.85" height="299.25"/>
    </clipPath>
    <clipPath id="clippath-31">
      <polygon class="cls-1" points="1808.97 109.41 1878.68 109.41 1974.57 13.52 1855.47 13.52 1783.1 85.89 1698.27 1.04 1579.15 1.04 1716.47 138.36 1591.16 263.68 1710.25 263.68 1777.28 196.67 1880.9 300.29 1999.99 300.29 1808.97 109.41"/>
    </clipPath>
    <clipPath id="clippath-32">
      <rect class="cls-1" x="1578.67" width="421.33" height="301.33"/>
    </clipPath>
    <clipPath id="clippath-33">
      <rect class="cls-1" x="1579.15" y="1.04" width="420.85" height="299.25"/>
    </clipPath>
    <clipPath id="clippath-34">
      <polygon class="cls-1" points="1808.97 109.41 1878.68 109.41 1974.57 13.52 1855.47 13.52 1783.1 85.89 1698.27 1.04 1579.15 1.04 1716.47 138.36 1591.16 263.68 1710.25 263.68 1777.28 196.67 1880.9 300.29 1999.99 300.29 1808.97 109.41"/>
    </clipPath>
  </defs>
  <g class="cls-36">
    <g>
      <g class="cls-27">
        <g class="cls-30">
          <g class="cls-28">
            <g class="cls-29">
              <g class="cls-35">
                <path d="M0,16.44h143.27v246.8H0V16.44Z"/>
              </g>
            </g>
          </g>
        </g>
      </g>
      <g class="cls-32">
        <g class="cls-31">
          <g class="cls-34">
            <g class="cls-33">
              <g class="cls-7">
                <path d="M210.97,20.36h197.89v238.86h-197.89V20.36Z"/>
              </g>
            </g>
          </g>
        </g>
      </g>
      <g class="cls-4">
        <g class="cls-11">
          <g class="cls-9">
            <path d="M489.01,20.36h123.31v238.93h-123.31V20.36Z"/>
          </g>
        </g>
      </g>
      <g class="cls-10">
        <g class="cls-8">
          <g class="cls-5">
            <path d="M694.74,20.36h117.76v238.72h-117.76V20.36Z"/>
          </g>
        </g>
      </g>
      <g class="cls-2">
        <g class="cls-6">
          <g class="cls-3">
            <path d="M902.12,20.36h32.71v238.81h-32.71V20.36Z"/>
          </g>
        </g>
      </g>
      <g class="cls-21">
        <g class="cls-22">
          <g class="cls-23">
            <g class="cls-24">
              <g class="cls-25">
                <path d="M1032.96,20.36h171.06v238.56h-171.06V20.36Z"/>
              </g>
            </g>
          </g>
        </g>
      </g>
      <g class="cls-26">
        <g class="cls-19">
          <g class="cls-17">
            <g class="cls-20">
              <g class="cls-18">
                <path d="M1281.55,20.36h234.2v238.77h-234.2V20.36Z"/>
              </g>
            </g>
          </g>
        </g>
      </g>
      <g class="cls-16">
        <g class="cls-12">
          <g class="cls-13">
            <g class="cls-14">
              <g class="cls-15">
                <path d="M1579.15,1.04h420.83v299.25h-420.83V1.04Z"/>
              </g>
            </g>
          </g>
        </g>
      </g>
    </g>
  </g>
</svg>