<?xml version="1.0" encoding="UTF-8"?>
<svg id="Layer_1" data-name="Layer 1" xmlns="http://www.w3.org/2000/svg" viewBox="0 0 1136 160.45">
  <polygon points="0 154.18 0 153.18 0 7.09 0 6.09 148.62 6.55 148.43 154.2 0 154.18"/>
  <path d="M651.43,5.1v60.63l2.98-1.51,45.48-59.11h47.46l-58.99,71.06,61.98,75.55L808.43,5.23l42.87.32,55.91,149.62h-40.96l-9.08-24.26c-.72-1.54-1.92-1.47-3.36-1.63-15.75-1.81-35.21,1.32-51.35.22l-10.82,25.71-88.56-.22-49.35-63.15-2.29-1.26v64.6h-38.97V5.1h38.97ZM845.26,99.52l-15-47.7-16.58,45.65,1.1,2.06h30.47Z"/>
  <path d="M1032.09,96.53V5.1h38.97v150.07h-39.96c-.06-.9-.35-1.79-.98-2.46-24.31-26.14-44.24-60.65-67.93-87.25-.75-.84-1.97-1.36-3.03-1.73v91.44h-37.47l-1.5-1.49V5.1h39.47l72.44,91.44Z"/>
  <path d="M379.47.43c113-9.79,123.2,151.56,15.67,159.7-111.06,8.41-124.39-150.29-15.67-159.7ZM381.42,38.15c-33.22,4.53-47.43,41.93-27.15,68.23,18.53,24.03,57.29,20.17,70.83-6.89,15.79-31.57-9.22-66.05-43.68-61.34Z"/>
  <path d="M587.48,13.06l-15.58,29.74c-10.29-6.13-22.15-12.24-34.37-7.39-6.8,2.7-9.95,8.1-7.45,15.35,2.85,8.27,25.16,11.98,32.94,14.93,23.7,8.98,32.83,22.56,30.43,48.21-4.37,46.84-59.59,53-95.26,37.14-2.67-1.19-15.92-7.58-15.5-10.11l16.42-29.49c12.21,8.58,26.84,18.49,42.61,13.62,11.51-3.56,15.94-16.92,5.12-24.4-20.92-14.45-55.21-5.87-58.27-43.41-4.75-58.44,57.76-67,98.9-44.2Z"/>
  <polygon points="297.74 37.9 266.27 37.9 264.77 39.39 264.77 155.17 227.3 155.17 225.8 153.68 225.8 37.9 193.83 37.9 193.83 5.1 296.24 5.1 297.74 6.59 297.74 37.9"/>
  <rect x="1097.53" y="5.1" width="38.47" height="150.07"/>
  <polyline points="814.78 99.52 813.68 97.46 830.26 51.81"/>
</svg>