<?xml version="1.0" encoding="UTF-8"?>
<svg id="Layer_1" data-name="Layer 1" xmlns="http://www.w3.org/2000/svg" viewBox="0 0 2000 484.87">
  <path d="M2000,382.63v4.68c-2.19,2.37-3.96,4.79-7.65,4.71l-817.23-.35c-8.67-3.45-5.57-14.53,3.67-13.74h813.57c3.69-.09,5.47,2.34,7.65,4.71Z"/>
  <path d="M0,388.65v-7.35c5.05-10.93,21.3-8.17,20.75,4.37-.51,11.55-16.15,13.55-20.75,2.98Z"/>
  <rect y="3.86" width=".67" height="187.05"/>
  <path d="M891.04,351.24c-9.03,44.51-19.31,88.78-28.67,133.22l-13.74.41-29.79-137.64v137.61h-16.71v-199.74h29.41l28.08,131.6,29.4-131.6h28.07v199.74h-24.73c-.47-44.51.63-89.14,0-133.61-.01-.84.28-4.01-.33-4.01-.79,1.04-.75,2.76-1,4.01Z"/>
  <path d="M1491.31,41.94c-.14,64.08.1,128.28,0,192.39h-12.03V5.53c0-.2-.92-.95-.67-1.67h28.74l37.1,173.03L1581.55,3.86h26.74v230.47h-22.06V40.6l-1.13,1.87-41.61,191.57-10.03.26-40.81-192.36-1-4.01c-.6,0-.33,3.18-.33,4.01Z"/>
  <path d="M531.42,3.86c20.15,1.1,42.96-2.43,62.59,2.59,15.2,3.88,25.03,13.65,29.62,28.52,5.62,18.18,4.99,53.81-2.73,71.34-4.69,10.67-11.95,16.3-22.54,20.78l36.01,107.24h-26.74l-32.09-104.21h-21.39v104.21h-22.73V3.86ZM576.54,15.88h-23.06v102.21h23.73c8.44,0,18.65-6.2,22.05-14.04,5.2-12.01,4.95-55.59,2.04-68.82s-11.46-18.31-24.76-19.35Z"/>
  <path d="M1999.33,234.33h-26.07l-32.75-104.21h-21.39v104.21h-22.06V3.86c14.45.55,29.42-.73,43.81-.03,28.36,1.38,45.33,11.44,50.25,40.64,3.74,22.22,3.23,63.55-17.64,77.51-2.86,1.91-6.32,2.76-8.5,4.2-.57.37-1.12.64-.96,1.47l35.32,106.69ZM1919.12,118.09h23.06c1.29,0,6.11-1.21,7.69-1.67,7.79-2.28,12.96-6.71,15.56-14.51,3.81-11.43,3.74-51.79,1.63-64.13-1.62-9.47-5.63-17.2-15.32-20.09-1.88-.56-7.87-1.8-9.56-1.8h-23.06v102.21Z"/>
  <path d="M1383.69,234.33h-26.07l-32.75-104.21h-21.39v104.21h-22.06V3.86c35.79,1.77,82.93-10.15,93.26,36.07,5.51,24.67,4.99,69.58-19.71,83.86-1.68.97-6.69,2.17-6.59,3.86l35.32,106.69ZM1303.48,118.09h23.06c7.96,0,17.93-5.29,21.63-12.45,5.75-11.13,5.07-48.46,4.13-62.06-.78-11.33-4.3-22.43-16.22-25.88-1.98-.57-7.78-1.82-9.54-1.82h-23.06v102.21Z"/>
  <path d="M1130.23.01c32.66-.73,45.35,30.8,50.72,57.82,8.01,40.34,9.2,127.61-15.3,162.01-18.98,26.65-53.72,24.15-70.18-3.77-18.66-31.66-18.8-95.53-15.92-131.71,2.42-30.44,11.47-83.48,50.68-84.35ZM1130.91,12.04c-16.65.63-23.16,13.56-25.21,28.31.74,48.69-3.53,100.44-.78,148.92,1.12,19.71,9.24,41.96,33.48,36.06,13.94-3.39,18.75-16.61,20.62-29.5-.49-47.29,3.21-97.11.78-144.24-.96-18.59-5.9-40.41-28.89-39.55Z"/>
  <path d="M977.27,285.1c26.85,1.5,68.75-7.73,81.87,23.39,7.52,17.84,7.29,58.21-4.72,74.08-11.97,15.81-33.9,15.1-51.75,14.75v86.51l-1,1h-24.4v-199.74ZM1002.67,381.3h12.37c2.35,0,8.15-1.28,10.54-2.15,10.29-3.75,11.25-13.83,11.84-23.57.63-10.27,1.24-39.35-4.12-47.31-1.88-2.8-7.66-6.46-10.92-6.46h-19.72v79.5Z"/>
  <path d="M.67,3.86h22.06s-.03,187.41-.03,187.41c1.08,18.18,7.6,34.71,28.47,35.07,17.59.3,30.38-15.5,30.38-32.42V3.86h12.7l.03,188.08c2.03,64.03-96.71,61.17-93.61-1.03V3.86Z"/>
  <path d="M828.21,234.33h-22.39l-11.76-52.71-56,.02-11.45,52.69h-12.7L763.49,4.99c.19-.91.76-.98,1.54-1.13,1.37-.26,12.51-.12,13.08.29l50.09,230.18ZM791.44,169.53l-26.06-118.24-24.74,118.24h50.8Z"/>
  <path d="M1796.79,15.88h-60.83l.67,92.19h44.12v12.02h-44.79v100.54l1,1h62.83c2.77,0-1.68,10.99-1.67,12.69h-84.22V3.86h79.21l3.68,12.02Z"/>
  <path d="M997.99,3.86l3.34,12.02h-60.16v92.19h44.12v12.02h-44.12v114.23h-22.06V5.53c0-.2-.92-.95-.67-1.67h79.55Z"/>
  <polygon points="1099.6 301.8 1104.7 285.19 1190.87 285.06 1192.05 285.91 1195.19 301.8 1160.43 301.8 1160.43 484.84 1135.7 484.84 1135.7 301.8 1099.6 301.8"/>
  <path d="M441.18,15.88h-41.44v218.45h-22.06V15.88h-40.78c-.08-1.18,0-2.33.17-3.5.28-1.89,1.72-8.2,3.49-8.53l95.63-.03,1.99.69,2.99,11.37Z"/>
  <path d="M221.93,3.86v218.45h61.5l-2.67,12.02h-80.88V5.53c0-.2-.92-.95-.67-1.67h22.73Z"/>
  <path d="M342.06,374.77c14.98-3.09,19,15.97,6.86,20.21-14.75,5.15-19.08-17.7-6.86-20.21Z"/>
  <path d="M102.76,374.77c17.03-3.51,18.24,20.24,3.69,21.06-12.63.71-14.7-18.79-3.69-21.06Z"/>
  <path d="M581.37,374.77c12.35-2.54,19.22,11.62,9.87,18.55-7.74,5.73-17.91-.06-17.04-9.68.33-3.68,3.42-8.09,7.18-8.87Z"/>
  <path d="M725.09,374.77c17.03-3.51,18.24,20.24,3.69,21.06-12.63.71-14.7-18.79-3.69-21.06Z"/>
  <path d="M246.48,374.77c17.72-3.65,17.62,21.62,2.62,20.98-12.24-.52-13.09-18.83-2.62-20.98Z"/>
  <path d="M437.64,374.76c11.94-2.69,19.57,11.38,9.88,18.56-9.87,7.32-21.7-4.27-15.18-14.5.96-1.5,3.57-3.67,5.3-4.06Z"/>
  <path d="M485.78,374.77c17.64-3.64,17.77,21.63,2.62,20.98-12.12-.52-13.12-18.82-2.62-20.98Z"/>
  <path d="M198.35,374.77c12.35-2.54,19.22,11.62,9.87,18.55s-21.26-3.43-15.4-14.06c1.14-2.07,3.15-4,5.53-4.49Z"/>
  <path d="M161.53,392.42c-11.61,11.02-26.13-8.24-13.47-16.47,10.46-6.8,22.55,7.86,13.47,16.47Z"/>
  <path d="M677.63,374.77c4.96-.91,9.02.33,11.83,4.56,7.51,11.32-10.23,23.16-17.97,11.28-3.72-5.72-.7-14.58,6.14-15.84Z"/>
  <path d="M54.62,374.76c11.95-2.68,19.56,11.38,9.88,18.56-9.08,6.73-20.58-2.83-15.82-13.14.98-2.13,3.6-4.9,5.94-5.42Z"/>
  <path d="M629.5,374.77c14.51-3.01,18.64,15.88,6.88,20.22-14.57,5.38-19.52-17.6-6.88-20.22Z"/>
  <path d="M783.86,392.42c-11.67,11.07-26.02-8.31-13.47-16.47,10.46-6.8,22.55,7.86,13.47,16.47Z"/>
  <path d="M390.19,374.77c16.32-3.38,18.4,19.71,3.56,20.92-12.52,1.02-15-18.55-3.56-20.92Z"/>
  <path d="M544.56,392.43c-8.72,8.72-23.4-2.37-16.79-13.11,8.01-13.03,27.9,2.01,16.79,13.11Z"/>
  <path d="M305.25,377.52c10.83,11.39-8.97,25.81-16.79,13.1-6.81-11.08,8.46-21.86,16.79-13.1Z"/>
  <path d="M892.38,351.24h-1.34c.25-1.26.21-2.97,1-4.01.61,0,.32,3.17.33,4.01Z"/>
  <path d="M1492.65,41.94h-1.34c0-.83-.27-4.02.33-4.01l1,4.01Z"/>
</svg>